<svg height='300px' width='300px'  fill="#E60000" xmlns:dc="http://purl.org/dc/elements/1.1/" xmlns:cc="http://creativecommons.org/ns#" xmlns:rdf="http://www.w3.org/1999/02/22-rdf-syntax-ns#" xmlns:svg="http://www.w3.org/2000/svg" xmlns="http://www.w3.org/2000/svg" xmlns:sodipodi="http://sodipodi.sourceforge.net/DTD/sodipodi-0.dtd" xmlns:inkscape="http://www.inkscape.org/namespaces/inkscape" version="1.1" x="0px" y="0px" viewBox="0 0 100 100"><g transform="translate(0,-952.36218)"><path style="text-indent:0;text-transform:none;direction:ltr;block-progression:tb;baseline-shift:baseline;color:#000000;enable-background:accumulate;" d="m 18,959.36216 c -0.65338,0.014 -0.98843,0.5416 -1,1 l 0,84.00004 c 5e-5,0.5236 0.47642,0.9999 1,1 l 50,0 c 0.26844,0 0.53419,-0.1176 0.71875,-0.3125 l 14,-14 c 0.17637,-0.1823 0.27926,-0.4338 0.28125,-0.6875 l 0,-70.00004 c -5e-5,-0.5236 -0.47642,-0.9999 -1,-1 l -64,0 z m 1,2 62,0 0,68.00004 -13,0 c -0.66115,0.018 -1.00099,0.4644 -1,1 l 0,13 -48,0 0,-82.00004 z m 31,21.99995 c -0.5522,0 -1,0.4477 -1,1 l 0,25.59389 -8.28125,-8.3127 c -0.3905,-0.3905 -1.047,-0.3906 -1.4375,0 -0.3905,0.3905 -0.3594,1.0745 0,1.4376 l 9.9375,9.8751 c 0.2451,0.2211 0.45595,0.4062 0.78125,0.4062 0.3254,0 0.555751,-0.1772 0.78125,-0.4062 l 9.9375,-9.8751 c 0.3634,-0.3709 0.3905,-1.0471 0,-1.4376 -0.3905,-0.3906 -1.047,-0.3905 -1.4375,0 L 51,1009.956 51,984.36211 c 0,-0.5523 -0.4477,-1 -1,-1 z m 19,48.00009 10.5625,0 -10.5625,10.5625 0,-10.5625 z" fill="#E60000" fill-opacity="1" stroke="none" marker="none" visibility="visible" display="inline" overflow="visible"></path></g></svg>