<?xml version="1.0" standalone="no"?>
<!DOCTYPE svg PUBLIC "-//W3C//DTD SVG 20010904//EN"
 "http://www.w3.org/TR/2001/REC-SVG-20010904/DTD/svg10.dtd">
<svg version="1.0" xmlns="http://www.w3.org/2000/svg"
 width="4200" height="1200" viewBox="0 100 4205.000000 1200"
 preserveAspectRatio="xMidYMid meet">

<g transform="translate(0.000000,1377.000000) scale(0.100000,-0.100000)"
fill="#12285f" stroke="none">
<path d="M4710 12603 c-19 -1 -87 -8 -150 -14 -152 -14 -383 -52 -550 -91
-1474 -336 -2695 -1387 -3253 -2798 -169 -426 -270 -869 -308 -1343 -15 -195
-7 -686 15 -867 70 -574 228 -1096 480 -1585 644 -1249 1810 -2133 3181 -2410
1220 -247 2481 7 3513 708 451 307 895 749 1205 1202 910 1331 1059 3034 395
4504 -431 955 -1191 1747 -2130 2217 -516 258 -1056 413 -1644 469 -141 13
-643 19 -754 8z m3840 -3350 c0 -11 -564 -750 -603 -791 -39 -41 -107 -77
-189 -99 -58 -16 -221 -18 -2098 -23 l-2035 -5 -54 -22 c-77 -32 -153 -84
-193 -135 -19 -24 -118 -162 -218 -308 -222 -320 -491 -698 -522 -734 l-23
-26 -691 2 -691 3 384 560 c211 308 401 577 421 598 93 97 237 186 374 232
173 57 68 55 2613 55 2576 0 2399 -4 2532 62 34 17 84 51 111 77 26 25 126
162 221 304 l173 257 244 0 c134 0 244 -3 244 -7z m770 -12 c0 -16 -798 -1093
-847 -1144 -52 -54 -152 -106 -253 -134 -60 -16 -174 -18 -1485 -23 -993 -4
-1429 -9 -1450 -16 -52 -19 -108 -51 -150 -84 -47 -37 -101 -108 -271 -357
-76 -110 -147 -202 -182 -235 -68 -62 -158 -109 -269 -140 -76 -22 -94 -22
-812 -26 -652 -3 -733 -2 -728 12 12 30 611 892 646 929 44 47 82 71 157 100
l59 22 2035 5 c1921 5 2038 7 2094 24 33 10 83 29 110 43 122 61 174 118 428
468 79 110 204 282 277 383 l132 182 254 0 c146 0 255 -4 255 -9z m-2190 -36
c0 -3 -36 -57 -81 -120 l-80 -115 -3100 0 -3099 0 6 28 c14 62 45 188 49 200
4 9 643 12 3155 12 1732 0 3150 -2 3150 -5z m-2528 -440 l-117 -114 -644 -1
c-354 0 -642 2 -640 5 3 2 75 54 160 115 l154 110 602 0 603 0 -118 -115z"/>
<path d="M38735 10879 c-847 -44 -1521 -424 -1825 -1029 -60 -119 -102 -238
-132 -371 -20 -92 -23 -130 -23 -334 0 -247 9 -318 61 -475 150 -451 537 -760
1236 -989 223 -72 413 -122 773 -201 888 -196 1175 -311 1272 -508 25 -51 28
-67 28 -162 0 -98 -2 -109 -30 -159 -93 -169 -334 -262 -755 -292 -580 -42
-1246 94 -2063 421 -141 57 -260 100 -263 97 -15 -15 -404 -1071 -397 -1078
10 -9 315 -144 466 -206 802 -329 1565 -482 2281 -459 784 25 1350 214 1731
577 228 219 367 470 437 789 19 92 22 134 23 335 0 256 -8 316 -70 502 -162
486 -605 862 -1300 1103 -189 65 -373 114 -693 185 -832 185 -1106 277 -1247
419 -76 77 -99 131 -99 241 -1 79 2 97 27 147 89 180 359 288 800 319 325 23
666 -19 1044 -127 271 -77 598 -208 793 -318 72 -40 97 -50 103 -40 4 7 100
253 213 546 114 293 208 538 211 544 9 22 -537 221 -865 314 -401 114 -859
190 -1247 205 -296 11 -344 12 -490 4z"/>
<path d="M31020 9208 c1 -1543 6 -1853 35 -2084 127 -1009 623 -1631 1507
-1889 567 -166 1398 -176 1998 -25 942 237 1474 870 1604 1910 31 243 36 523
36 2063 l0 1547 -685 0 -684 0 -4 -1677 -3 -1678 -22 -100 c-33 -141 -75 -264
-128 -365 -196 -380 -575 -590 -1064 -590 -588 0 -1003 293 -1155 815 -63 217
-59 90 -62 1923 l-3 1672 -685 0 -685 0 0 -1522z"/>
<path d="M13641 10088 c-966 -1912 -2441 -4832 -2441 -4835 0 -2 369 -2 821
-1 l821 3 205 438 206 437 938 0 c517 0 939 1 939 3 0 2 -130 269 -288 593
l-289 589 -371 3 c-205 1 -372 6 -372 10 0 18 686 1470 695 1471 6 1 404 -796
886 -1771 l875 -1773 823 -3 c528 -1 822 1 819 8 -1 5 -646 1236 -1433 2734
l-1430 2726 -542 0 -542 0 -320 -632z"/>
<path d="M25570 7985 l0 -2735 1668 -2 c1772 -3 1784 -3 1907 13 195 24 464
115 632 212 209 121 418 307 546 487 81 115 176 302 216 427 54 165 66 249 66
458 0 204 -11 285 -61 434 -100 297 -321 575 -592 741 l-52 32 100 95 c192
183 297 390 352 693 31 173 31 464 0 618 -136 678 -704 1178 -1421 1251 -68 7
-660 11 -1732 11 l-1629 0 0 -2735z m3302 1564 c215 -45 378 -238 378 -449 0
-214 -166 -408 -387 -455 -56 -12 -232 -15 -1020 -15 l-953 0 0 465 0 465 965
0 c663 0 981 -3 1017 -11z m108 -2096 c335 -115 489 -448 341 -741 -74 -147
-206 -248 -379 -293 -72 -18 -119 -19 -1064 -19 l-988 0 0 540 0 541 1013 -3
1012 -3 65 -22z"/>
<path d="M18200 7975 l0 -2735 678 2 677 3 3 2733 2 2732 -680 0 -680 0 0
-2735z"/>
<path d="M20140 7965 l0 -2735 655 0 655 0 2 2158 3 2157 880 0 880 0 90 -28
c125 -39 179 -71 261 -152 118 -117 174 -267 174 -467 -1 -190 -55 -335 -169
-448 -74 -73 -150 -118 -261 -151 -74 -23 -81 -23 -728 -27 -361 -1 -652 -7
-650 -11 2 -5 386 -689 853 -1520 l850 -1511 673 0 c369 0 672 3 672 6 0 4
-31 59 -69 123 -269 457 -1072 1832 -1077 1844 -4 11 9 20 48 32 447 147 814
455 1003 841 59 121 119 305 147 452 19 101 23 151 23 362 0 256 -5 309 -51
492 -83 334 -267 635 -516 844 -281 235 -607 374 -1052 447 -129 21 -150 21
-1713 24 l-1583 4 0 -2736z"/>
<path d="M22020 3959 c-317 -41 -582 -171 -810 -399 -205 -204 -319 -420 -377
-715 -24 -126 -24 -434 0 -560 39 -200 108 -374 205 -517 215 -317 522 -512
917 -584 149 -27 476 -25 639 5 292 53 511 162 713 354 96 92 216 233 211 247
-2 4 -72 53 -155 109 l-153 101 -86 -89 c-196 -204 -434 -315 -733 -340 -191
-17 -420 9 -566 63 -307 116 -514 346 -596 661 -21 78 -24 113 -24 270 1 136
5 197 18 247 71 284 239 500 490 633 296 157 720 167 1063 24 115 -48 248
-140 345 -239 l86 -87 166 70 167 70 -18 29 c-35 59 -151 195 -235 275 -220
208 -486 330 -810 373 -91 12 -362 11 -457 -1z"/>
<path d="M25225 3964 c-350 -53 -586 -163 -816 -382 -272 -258 -407 -560 -426
-952 -16 -342 78 -668 267 -918 164 -218 403 -390 663 -477 173 -58 262 -70
517 -70 243 1 339 14 509 71 388 130 708 442 840 817 61 174 75 269 76 507 0
231 -8 294 -62 464 -121 388 -452 726 -846 865 -163 57 -260 72 -487 76 -113
2 -218 1 -235 -1z m388 -409 c341 -51 616 -246 766 -542 118 -235 127 -595 20
-861 -84 -211 -281 -410 -497 -502 -229 -97 -546 -117 -809 -49 -360 92 -621
358 -701 717 -27 121 -23 400 7 512 31 117 64 191 128 290 218 336 636 503
1086 435z"/>
<path d="M39985 3939 c-104 -14 -268 -55 -347 -88 -341 -144 -513 -403 -495
-746 20 -375 224 -542 757 -619 58 -9 238 -27 400 -41 603 -53 707 -76 819
-180 72 -67 96 -128 96 -240 -1 -117 -31 -189 -114 -269 -150 -142 -387 -203
-751 -193 -215 6 -354 29 -532 88 -119 39 -349 151 -457 223 -47 31 -88 56
-92 56 -9 0 -199 -293 -199 -308 0 -32 234 -197 373 -262 440 -206 1130 -249
1582 -99 238 79 416 224 510 413 54 111 73 188 81 331 27 490 -266 746 -938
820 -73 8 -245 24 -383 35 -445 37 -573 68 -680 162 -104 90 -111 252 -16 360
70 79 225 145 391 167 384 50 743 -15 1113 -201 87 -44 159 -79 161 -77 160
210 217 290 212 297 -14 22 -196 138 -294 187 -187 93 -378 150 -605 180 -130
17 -472 19 -592 4z"/>
<path d="M11200 2560 l0 -1330 185 0 185 0 0 590 0 590 900 0 900 0 0 -590 0
-590 180 0 180 0 0 1330 0 1330 -180 0 -180 0 -2 -537 -3 -538 -897 -3 -898
-2 0 540 0 540 -185 0 -185 0 0 -1330z"/>
<path d="M14360 2560 l0 -1330 1173 2 1172 3 3 198 2 197 -990 0 -990 0 0 390
0 390 655 0 655 0 0 200 0 200 -655 0 -655 0 0 340 0 340 945 0 945 0 0 200 0
200 -1130 0 -1130 0 0 -1330z"/>
<path d="M17270 2560 l0 -1330 1048 2 1047 3 3 198 2 197 -865 0 -865 0 0
1130 0 1130 -185 0 -185 0 0 -1330z"/>
<path d="M19870 2560 l0 -1330 183 2 182 3 3 1328 2 1327 -185 0 -185 0 0
-1330z"/>
<path d="M27430 2560 l0 -1330 183 2 182 3 5 505 5 505 770 5 c749 5 772 6
846 27 270 76 430 235 500 498 27 101 37 344 19 467 -40 280 -207 507 -437
594 -139 53 -146 53 -1145 54 l-928 0 0 -1330z m1892 904 c169 -65 237 -169
246 -377 9 -237 -57 -353 -239 -419 l-64 -23 -732 -3 -733 -3 0 426 0 426 733
-3 c721 -3 733 -3 789 -24z"/>
<path d="M30252 3693 l3 -198 538 -3 537 -2 0 -1130 0 -1130 183 2 182 3 3
1127 2 1128 533 2 532 3 3 198 2 197 -1260 0 -1260 0 2 -197z"/>
<path d="M33202 2563 l3 -1328 1173 -3 1172 -2 0 200 0 200 -987 2 -988 3 -3
387 -2 388 657 2 658 3 3 197 2 198 -657 2 -658 3 -3 338 -2 337 945 0 945 0
0 200 0 200 -1130 0 -1130 0 2 -1327z"/>
<path d="M36110 2560 l0 -1330 185 0 185 0 2 507 3 508 565 0 564 0 304 -508
305 -507 213 0 c118 0 214 2 214 5 0 2 -133 232 -295 511 -162 279 -295 510
-295 514 0 4 28 15 63 25 224 62 384 216 462 444 37 111 48 203 42 373 -6 183
-25 270 -93 407 -38 77 -62 110 -128 176 -90 90 -171 138 -296 177 l-75 22
-962 4 -963 3 0 -1331z m1838 915 c181 -43 280 -158 302 -353 18 -166 -29
-319 -123 -392 -43 -34 -128 -68 -197 -79 -41 -7 -325 -11 -757 -11 l-693 0 0
425 0 425 703 0 c584 0 713 -3 765 -15z"/>
</g>
</svg>
