<?xml version="1.0" standalone="no"?>
<!DOCTYPE svg PUBLIC "-//W3C//DTD SVG 20010904//EN"
 "http://www.w3.org/TR/2001/REC-SVG-20010904/DTD/svg10.dtd">
<svg version="1.0" xmlns="http://www.w3.org/2000/svg"
 width="1318.000000pt" height="306.000000pt" viewBox="0 0 1318.000000 306.000000"
 preserveAspectRatio="xMidYMid meet">

<g transform="translate(0.000000,306.000000) scale(0.100000,-0.100000)"
fill="#0a1c70" stroke="none">
<path d="M956 2964 c-183 -40 -350 -160 -444 -321 -59 -100 -84 -188 -90 -310
-8 -182 38 -329 143 -457 99 -122 1184 -1333 1235 -1379 67 -61 155 -109 250
-139 60 -18 98 -23 190 -23 197 0 335 58 477 200 130 131 193 283 193 468 0
68 -3 87 -14 87 -8 0 -96 -11 -197 -25 -101 -14 -187 -25 -190 -25 -3 0 -9
-25 -13 -56 -16 -140 -121 -236 -258 -236 -121 0 -102 -18 -764 725 -327 368
-603 686 -615 708 -88 174 45 381 244 380 240 -1 350 -295 172 -460 -24 -22
-62 -45 -84 -52 -23 -7 -40 -16 -39 -20 6 -15 279 -319 287 -319 19 0 129 90
174 141 62 70 133 214 153 309 22 103 14 239 -20 345 -106 332 -450 532 -790
459z"/>
<path  d="M5500 2306 l0 -256 45 0 45 0 0 155 c0 85 3 155 8 155 4 0 91 -72
195 -160 l187 -160 0 255 0 255 -45 0 -45 0 0 -155 c0 -85 -3 -155 -6 -155 -6
0 -207 167 -316 263 l-68 59 0 -256z"/>
<path d="M6240 2545 c-102 -33 -180 -138 -180 -245 0 -138 124 -260 266 -260
43 0 111 25 152 56 l34 27 -29 29 -30 29 -48 -25 c-80 -43 -153 -30 -212 37
-57 65 -53 164 9 224 62 59 127 68 203 28 l48 -26 28 27 c28 26 28 28 11 47
-49 55 -168 79 -252 52z"/>
<path d="M3651 2508 c-10 -24 -62 -133 -115 -242 -53 -109 -96 -203 -96 -207
0 -5 22 -9 48 -9 47 0 48 1 70 45 l22 45 128 0 128 0 22 -45 c22 -45 22 -45
72 -45 28 0 49 3 47 8 -2 4 -57 116 -122 250 l-118 242 -34 0 c-30 0 -36 -5
-52 -42z m138 -270 c1 -5 -37 -8 -84 -8 -47 0 -85 2 -85 5 0 3 19 43 42 90
l43 85 42 -82 c23 -46 42 -86 42 -90z"/>
<path d="M4040 2300 l0 -252 113 4 c101 3 117 6 165 33 172 94 172 336 0 430
-48 27 -64 30 -165 33 l-113 4 0 -252z m238 140 c67 -41 95 -123 67 -196 -25
-66 -72 -97 -151 -102 l-64 -4 0 161 0 161 58 0 c39 0 67 -6 90 -20z"/>
<path d="M4460 2488 c15 -35 68 -148 117 -253 l89 -190 34 0 34 0 117 250 116
250 -45 3 c-25 2 -48 0 -52 -5 -3 -4 -42 -86 -85 -180 -43 -95 -81 -173 -84
-173 -3 0 -42 80 -86 178 l-81 177 -52 3 -51 3 29 -63z"/>
<path d="M5121 2508 c-10 -24 -62 -133 -115 -242 -53 -109 -96 -203 -96 -207
0 -5 22 -9 48 -9 47 0 48 1 70 45 l22 45 128 0 128 0 22 -45 c22 -45 22 -45
72 -45 28 0 49 3 47 8 -2 4 -57 116 -122 250 l-118 242 -34 0 c-30 0 -36 -5
-52 -42z m138 -270 c1 -5 -37 -8 -84 -8 -47 0 -85 2 -85 5 0 3 19 43 42 90
l43 85 42 -82 c23 -46 42 -86 42 -90z"/>
<path d="M6570 2300 l0 -250 155 0 155 0 0 45 0 45 -110 0 -110 0 0 60 0 60
91 0 90 0 -3 43 -3 42 -87 3 -88 3 0 54 0 55 110 0 110 0 0 45 0 45 -155 0
-155 0 0 -250z"/>
<path d="M6960 2300 l0 -252 113 4 c101 3 117 6 165 33 172 94 172 336 0 430
-48 27 -64 30 -165 33 l-113 4 0 -252z m238 140 c67 -41 95 -123 67 -196 -25
-66 -72 -97 -151 -102 l-64 -4 0 161 0 161 58 0 c39 0 67 -6 90 -20z"/>
<path d="M369 1733 c-90 -93 -127 -146 -179 -255 -64 -134 -83 -220 -84 -383
0 -100 5 -159 17 -207 72 -290 254 -515 512 -634 138 -64 212 -79 385 -79 116
0 171 4 218 18 149 41 291 114 385 198 l52 47 -70 78 c-39 44 -102 114 -139
156 l-69 78 -41 -38 c-226 -207 -590 -158 -758 102 -54 84 -79 172 -79 277 -1
140 48 255 148 356 29 29 53 55 53 59 0 6 -260 297 -270 302 -3 1 -40 -33 -81
-75z"/>
<path  d="M2060 1774 c-142 -37 -303 -147 -381 -261 l-30 -43 23 -29 c13 -16
81 -94 152 -173 l130 -145 32 81 c38 93 79 136 155 161 34 12 49 22 49 34 0
10 -11 98 -25 197 -14 98 -25 182 -25 187 0 10 -16 8 -80 -9z"/>
<path  fill="#ff003a" d="M2510 1755 c-61 -19 -125 -75 -157 -139 -22 -41 -27 -65 -27 -121 1
-82 17 -126 70 -185 50 -55 105 -82 180 -88 111 -8 205 40 262 136 24 41 27
57 27 132 0 99 -17 142 -78 202 -71 69 -179 93 -277 63z"/>
<path d="M8207 1739 c-196 -46 -286 -277 -156 -401 l39 -37 -27 -15 c-36 -19
-86 -72 -109 -116 -13 -25 -18 -57 -18 -115 -1 -70 3 -87 29 -134 53 -95 160
-156 298 -167 178 -15 321 56 389 194 30 62 33 74 33 164 l0 98 53 0 52 0 0
70 0 70 -155 0 -155 0 0 -69 c0 -59 3 -69 19 -74 36 -9 38 -113 3 -182 -37
-76 -103 -116 -194 -116 -83 -1 -145 31 -177 92 -57 106 27 208 172 209 l57 0
0 70 0 70 -40 0 c-90 0 -150 51 -150 126 0 36 6 51 34 82 33 36 37 37 104 37
59 0 73 -4 104 -27 l35 -26 62 40 c58 38 61 42 48 62 -52 78 -223 125 -350 95z"/>
<path d="M6448 1724 c-335 -81 -487 -469 -296 -754 111 -167 332 -254 522
-205 80 21 156 60 211 109 l46 41 -59 58 -59 59 -54 -41 c-126 -97 -283 -91
-406 13 -139 119 -138 363 1 482 69 59 121 78 211 79 90 0 146 -20 206 -73
l36 -31 62 63 62 63 -53 41 c-129 99 -279 133 -430 96z"/>
<path d="M11718 1724 c-335 -81 -487 -469 -296 -754 111 -167 332 -254 522
-205 80 21 156 60 211 109 l46 41 -59 58 -59 59 -54 -41 c-126 -97 -283 -91
-406 13 -139 119 -138 363 1 482 69 59 121 78 211 79 90 0 146 -20 206 -73
l36 -31 62 63 62 63 -53 41 c-129 99 -279 133 -430 96z"/>
<path d="M5338 1268 c-109 -255 -200 -471 -204 -481 -6 -16 1 -18 87 -15 l93
3 42 95 41 95 201 3 200 2 42 -100 43 -100 94 0 c51 0 93 2 93 4 0 2 -92 217
-204 477 l-203 474 -65 3 -64 3 -196 -463z m326 19 l65 -147 -130 0 c-71 0
-129 3 -129 6 0 10 124 294 127 291 1 -2 31 -69 67 -150z"/>
<path d="M10598 1268 c-109 -255 -200 -471 -204 -481 -6 -16 1 -18 87 -15 l93
3 42 95 41 95 201 3 200 2 42 -100 43 -100 94 0 c51 0 93 2 93 4 0 2 -92 217
-204 477 l-203 474 -65 3 -64 3 -196 -463z m326 19 l65 -147 -130 0 c-71 0
-129 3 -129 6 0 10 124 294 127 291 1 -2 31 -69 67 -150z"/>
<path d="M3440 1635 l0 -85 135 0 135 0 0 -390 0 -390 90 0 90 0 0 390 0 389
133 3 132 3 3 83 3 82 -361 0 -360 0 0 -85z"/>
<path d="M4270 1246 l0 -476 85 0 85 0 0 175 0 175 108 0 c91 0 111 -3 124
-17 8 -10 57 -89 109 -175 l94 -158 107 0 107 0 -110 177 c-60 97 -109 179
-109 182 1 3 24 20 52 36 208 120 189 427 -31 529 -43 20 -66 21 -333 24
l-288 3 0 -475z m551 289 c64 -34 89 -128 50 -191 -34 -55 -69 -64 -260 -64
l-171 0 0 135 0 135 175 0 c139 0 182 -3 206 -15z"/>
<path d="M7050 1245 l0 -475 85 0 85 0 0 195 0 195 113 0 112 -1 149 -194 149
-195 110 0 c86 0 107 3 100 13 -18 23 -345 442 -355 454 -7 9 40 78 159 235
93 123 173 229 177 236 5 9 -16 12 -97 12 l-105 0 -146 -195 -146 -195 -110 0
-110 0 0 195 0 195 -85 0 -85 0 0 -475z"/>
<path d="M8710 1635 l0 -85 135 0 135 0 0 -390 0 -390 90 0 90 0 0 390 0 389
133 3 132 3 3 83 3 82 -361 0 -360 0 0 -85z"/>
<path d="M9530 1246 l0 -476 85 0 85 0 0 175 0 175 108 0 c91 0 111 -3 124
-17 8 -10 57 -89 109 -175 l94 -158 107 0 107 0 -110 177 c-60 97 -109 179
-109 182 1 3 24 20 52 36 208 120 189 427 -31 529 -43 20 -66 21 -333 24
l-288 3 0 -475z m551 289 c64 -34 89 -128 50 -191 -34 -55 -69 -64 -260 -64
l-171 0 0 135 0 135 175 0 c139 0 182 -3 206 -15z"/>
<path d="M12310 1245 l0 -475 360 0 360 0 0 85 0 85 -275 0 -275 0 0 115 0
115 225 0 225 0 0 80 0 80 -225 0 -225 0 0 110 0 110 280 0 280 0 0 85 0 85
-365 0 -365 0 0 -475z"/>
<path d="M3578 414 c-33 -17 -58 -62 -58 -102 0 -27 5 -31 90 -63 50 -18 90
-39 90 -46 0 -20 -38 -53 -60 -53 -12 0 -33 12 -47 26 -19 19 -32 24 -49 20
-23 -6 -24 -7 -9 -36 46 -90 180 -73 215 28 18 53 12 59 -90 97 -41 16 -79 32
-84 36 -13 11 40 59 64 59 12 0 32 -12 45 -26 17 -18 30 -24 44 -19 25 8 26
14 5 43 -34 48 -104 65 -156 36z"/>
<path d="M4363 409 c-57 -28 -86 -76 -86 -144 0 -68 29 -116 87 -144 54 -26
88 -26 143 0 48 23 51 29 26 52 -16 13 -20 14 -37 1 -11 -8 -39 -14 -62 -14
-35 0 -47 5 -73 35 -22 25 -31 46 -31 70 0 24 9 45 31 70 26 30 38 35 73 35
23 0 51 -6 62 -14 17 -13 21 -12 37 1 25 24 21 32 -25 53 -55 25 -93 25 -145
-1z"/>
<path d="M6764 411 c-38 -23 -50 -62 -30 -101 12 -26 12 -30 -4 -45 -45 -41
-26 -125 34 -150 94 -40 186 15 186 110 0 16 6 25 15 25 9 0 15 9 15 25 0 23
-3 25 -50 25 -54 0 -62 -11 -38 -50 28 -44 -30 -110 -85 -96 -60 15 -58 96 3
96 25 0 30 4 30 24 0 18 -6 26 -21 28 -30 4 -47 33 -33 56 8 12 25 17 57 17
62 0 80 18 39 39 -41 21 -80 20 -118 -3z"/>
<path d="M8563 409 c-57 -28 -86 -76 -86 -144 0 -68 29 -116 87 -144 54 -26
88 -26 143 0 48 23 51 29 26 52 -16 13 -20 14 -37 1 -11 -8 -39 -14 -62 -14
-35 0 -47 5 -73 35 -22 25 -31 46 -31 70 0 24 9 45 31 70 26 30 38 35 73 35
23 0 51 -6 62 -14 17 -13 21 -12 37 1 25 24 21 32 -25 53 -55 25 -93 25 -145
-1z"/>
<path d="M3910 265 l0 -155 120 0 120 0 0 25 c0 25 -1 25 -90 25 l-90 0 0 40
0 40 70 0 c68 0 70 1 70 25 0 24 -2 25 -70 25 l-70 0 0 40 0 40 90 0 c89 0 90
0 90 25 l0 25 -120 0 -120 0 0 -155z"/>
<path d="M4690 309 c0 -131 13 -169 67 -194 42 -20 95 -15 126 12 36 32 47 77
47 188 l0 105 -30 0 -30 0 0 -114 c0 -112 -1 -115 -27 -135 -28 -23 -59 -20
-80 7 -9 11 -13 54 -13 129 l0 113 -30 0 -30 0 0 -111z"/>
<path d="M5090 265 l0 -155 30 0 30 0 0 60 0 60 35 0 c33 0 39 -5 73 -60 33
-53 41 -60 70 -60 32 0 32 0 18 27 -8 16 -24 42 -35 58 -26 38 -26 42 0 50 26
9 51 67 43 100 -3 14 -20 36 -36 50 -27 23 -38 25 -129 25 l-99 0 0 -155z
m188 89 c24 -17 29 -43 10 -62 -7 -7 -39 -12 -75 -12 l-63 0 0 45 0 45 53 0
c31 0 61 -6 75 -16z"/>
<path d="M5500 265 l0 -155 30 0 30 0 0 155 0 155 -30 0 -30 0 0 -155z"/>
<path d="M5700 395 c0 -23 4 -25 45 -25 l45 0 0 -130 0 -130 30 0 30 0 0 130
0 130 45 0 c41 0 45 2 45 25 l0 25 -120 0 -120 0 0 -25z"/>
<path d="M6067 408 c5 -7 35 -45 66 -84 l57 -71 0 -72 0 -71 30 0 30 0 0 69 0
69 66 84 66 83 -28 3 c-29 4 -46 -10 -105 -88 l-26 -34 -49 62 c-43 54 -53 62
-83 62 -25 0 -31 -3 -24 -12z"/>
<path d="M7300 395 c0 -23 4 -25 45 -25 l45 0 0 -130 0 -130 30 0 30 0 0 130
0 130 45 0 c41 0 45 2 45 25 l0 25 -120 0 -120 0 0 -25z"/>
<path d="M7680 265 l0 -155 30 0 30 0 0 60 0 60 35 0 c33 0 39 -5 73 -60 33
-53 41 -60 70 -60 32 0 32 0 18 27 -8 16 -24 42 -35 58 -26 38 -26 42 0 50 26
9 51 67 43 100 -3 14 -20 36 -36 50 -27 23 -38 25 -129 25 l-99 0 0 -155z
m188 89 c24 -17 29 -43 10 -62 -7 -7 -39 -12 -75 -12 l-63 0 0 45 0 45 53 0
c31 0 61 -6 75 -16z"/>
<path d="M8128 265 l-66 -155 29 0 c24 0 33 7 46 35 17 35 17 35 80 35 64 0
64 0 79 -35 12 -29 19 -35 44 -35 35 0 41 -22 -50 188 -73 168 -75 167 -162
-33z m116 3 l15 -38 -45 0 c-41 0 -44 2 -34 19 5 11 15 32 20 47 12 31 21 25
44 -28z"/>
<path d="M8890 265 l0 -155 120 0 120 0 0 25 c0 25 -1 25 -90 25 l-90 0 0 40
0 40 70 0 c68 0 70 1 70 25 0 24 -2 25 -70 25 l-70 0 0 40 0 40 90 0 c89 0 90
0 90 25 l0 25 -120 0 -120 0 0 -155z"/>
<path d="M9328 265 l-66 -155 29 0 c24 0 33 7 46 35 17 35 17 35 80 35 64 0
64 0 79 -35 12 -29 19 -35 44 -35 35 0 41 -22 -50 188 -73 168 -75 167 -162
-33z m116 3 l15 -38 -45 0 c-41 0 -44 2 -34 19 5 11 15 32 20 47 12 31 21 25
44 -28z"/>
<path d="M9710 265 l0 -155 106 0 c103 0 106 1 135 29 35 36 39 86 9 118 -18
20 -18 24 -5 50 21 39 19 51 -14 84 -29 28 -32 29 -130 29 l-101 0 0 -155z
m193 83 c20 -31 -8 -48 -79 -48 -64 0 -64 0 -64 28 0 16 3 32 7 36 4 4 34 6
67 4 42 -2 62 -8 69 -20z m-2 -108 c25 -14 25 -56 -1 -70 -11 -6 -46 -10 -78
-8 -54 3 -57 4 -60 31 -6 50 2 57 63 57 31 0 65 -5 76 -10z"/>
<path d="M10130 265 l0 -155 30 0 30 0 0 155 0 155 -30 0 -30 0 0 -155z"/>
<path d="M10350 265 l0 -155 120 0 120 0 0 60 c0 57 -1 60 -24 60 -21 0 -25
-6 -28 -32 -3 -33 -3 -33 -65 -36 l-63 -3 0 131 0 130 -30 0 -30 0 0 -155z"/>
<path d="M10740 265 l0 -155 30 0 30 0 0 155 0 155 -30 0 -30 0 0 -155z"/>
<path d="M10940 395 c0 -23 4 -25 45 -25 l45 0 0 -130 0 -130 30 0 30 0 0 130
0 130 45 0 c41 0 45 2 45 25 l0 25 -120 0 -120 0 0 -25z"/>
<path d="M11297 408 c5 -7 35 -45 66 -84 l57 -71 0 -72 0 -71 30 0 30 0 0 69
0 69 66 84 66 83 -28 3 c-29 4 -46 -10 -105 -88 l-26 -34 -49 62 c-43 54 -53
62 -83 62 -25 0 -31 -3 -24 -12z"/>
</g>
</svg>
