<?xml version="1.0" encoding="UTF-8" standalone="no"?>
<svg
   xmlns:dc="http://purl.org/dc/elements/1.1/"
   xmlns:cc="http://creativecommons.org/ns#"
   xmlns:rdf="http://www.w3.org/1999/02/22-rdf-syntax-ns#"
   xmlns:svg="http://www.w3.org/2000/svg"
   xmlns="http://www.w3.org/2000/svg"
   xmlns:sodipodi="http://sodipodi.sourceforge.net/DTD/sodipodi-0.dtd"
   xmlns:inkscape="http://www.inkscape.org/namespaces/inkscape"
   inkscape:version="1.0 (4035a4fb49, 2020-05-01)"
   height="385"
   width="600"
   sodipodi:docname="bcg_dt.svg"
   id="svg1305"
   version="1.1"
   stroke-miterlimit="2"
   stroke-linejoin="round"
   clip-rule="evenodd"
   fill-rule="evenodd"
   viewBox="0 0 600 385">
  <metadata
     id="metadata1311">
    <rdf:RDF>
      <cc:Work
         rdf:about="">
        <dc:format>image/svg+xml</dc:format>
        <dc:type
           rdf:resource="http://purl.org/dc/dcmitype/StillImage" />
        <dc:title></dc:title>
      </cc:Work>
    </rdf:RDF>
  </metadata>
  <defs
     id="defs1309" />
  <sodipodi:namedview
     inkscape:current-layer="svg1305"
     inkscape:window-maximized="1"
     inkscape:window-y="29"
     inkscape:window-x="-9"
     inkscape:cy="259.8394"
     inkscape:cx="577.5"
     inkscape:zoom="1.0458874"
     showgrid="false"
     id="namedview1307"
     inkscape:window-height="1013"
     inkscape:window-width="1920"
     inkscape:pageshadow="2"
     inkscape:pageopacity="0"
     guidetolerance="10"
     gridtolerance="10"
     objecttolerance="10"
     borderopacity="1"
     bordercolor="#666666"
     pagecolor="#ffffff" />
  <path
     style="stroke-width:0.519392"
     id="path1303"
     fill-rule="nonzero"
     fill="#0056d2"
     d="m 82.972815,342.35139 c 0,-23.10772 19.025315,-41.79544 42.813445,-41.79544 23.95435,0 42.98486,18.6981 42.98486,41.79544 0,22.93634 -19.03051,41.96685 -42.98486,41.96685 -23.78813,0 -42.813445,-19.05128 -42.813445,-41.96685 z m 65.240785,0 c 0,-11.55127 -10.02427,-21.74692 -22.42734,-21.74692 -12.23166,0 -22.25593,10.19565 -22.25593,21.74692 0,11.72267 10.02427,21.91834 22.25593,21.91834 12.42385,0 22.42734,-10.19567 22.42734,-21.91834 z m 366.49831,0.68042 c 0,-25.31516 20.5575,-42.47586 39.25041,-42.47586 12.74067,0 20.04851,3.90583 24.97235,11.38506 l 1.95809,-9.86844 h 19.10843 v 80.71346 h -19.10843 l -2.46711,-8.31026 c -5.60422,6.11843 -12.57447,9.86845 -24.46333,9.86845 -18.35012,-0.0259 -39.25041,-16.16866 -39.25041,-41.31241 z m 65.24076,-0.17141 c -0.0468,-12.21973 -10.11256,-22.24815 -22.33384,-22.24815 -12.25246,0 -22.33385,10.08191 -22.33385,22.33385 v 0.0857 c 0,11.21365 10.02427,21.23791 22.26114,21.23791 12.38749,0 22.40655,-10.02426 22.40655,-21.40933 z m -88.72244,-31.43358 v -9.34905 h -20.89515 v 80.70826 h 20.89515 v -43.48865 c 0,-13.08348 6.46122,-19.87712 17.6593,-19.87712 0.74273,0 1.4491,0.0519 2.1399,0.11946 l 3.87465,-19.48238 c -10.89163,0.0572 -18.78638,3.79156 -23.67385,11.36948 z m -209.97447,0.005 v -9.34905 l -20.89512,0.0467 0.17659,80.69787 20.89513,-0.0467 -0.11427,-43.48345 c -0.0312,-13.07829 6.4145,-19.88751 17.62295,-19.91348 0.71469,0.004 1.42937,0.042 2.13991,0.11945 L 304.93483,300 c -10.90724,0.0883 -18.81236,3.83832 -23.67907,11.43182 z m -105.24431,40.09183 v -49.44088 h 20.88992 v 46.89587 c 0,10.36186 5.77563,16.4803 15.79989,16.4803 11.21368,0 17.65932,-6.79884 17.65932,-19.88232 v -43.49385 h 20.90032 v 80.70321 h -20.88474 v -9.34904 c -4.92383,7.64544 -12.91208,11.38506 -23.95434,11.38506 -18.68772,0.005 -30.41037,-13.5873 -30.41037,-33.2982 z m 203.46646,-9.07897 c 0.0467,-22.59872 16.22061,-41.93566 41.87336,-41.88892 23.78813,0.0467 40.56967,19.10322 40.51255,41.55132 0.005,2.21937 -0.17141,4.4356 -0.51939,6.62745 l -61.50118,-0.11427 c 2.35806,9.68665 10.33071,16.66727 22.39618,16.69324 7.30264,0 15.12468,-2.69044 19.89269,-8.79849 l 14.25212,11.42662 c -7.32862,10.35147 -20.25628,16.44394 -34.00977,16.41797 -24.28157,-0.0831 -42.93811,-18.29817 -42.89656,-41.91492 z m 61.35054,-8.38297 c -1.17383,-8.15444 -9.6555,-14.45986 -19.67974,-14.47544 -9.68666,0 -17.5087,5.74446 -20.5835,14.40273 z m -135.76897,31.13233 18.57344,-9.723 c 3.06961,6.65339 9.20882,10.57481 17.90863,10.57481 8.01421,0 11.08381,-2.55541 11.08381,-6.13921 0,-12.98479 -43.99766,-5.11601 -43.99766,-34.79924 0,-16.37123 14.32482,-25.06584 32.05686,-25.06584 13.47301,0 25.40863,5.96782 31.89063,17.05162 l -18.40723,9.7386 c -2.72681,-5.45881 -7.84281,-8.52841 -14.32481,-8.52841 -6.30543,0 -9.38022,2.2178 -9.38022,5.9678 0,12.62122 43.99765,4.60702 43.99765,34.79925 0,15.69081 -12.78741,25.23724 -33.42284,25.23724 -17.56583,-0.0155 -29.84425,-5.812 -35.97826,-19.11362 z M 0,342.35109 c 0,-23.27393 19.025318,-41.96685 42.813445,-41.96685 14.515449,-0.1018 28.141686,7.1349 36.186022,19.2175 L 61.163552,329.94827 A 22.319296,22.319296 0 0 0 42.813445,320.433 c -12.231654,0 -22.255924,10.19566 -22.255924,21.91833 0,11.72268 10.02427,21.91833 22.255924,21.91833 a 22.075183,22.075183 0 0 0 18.859108,-10.38783 l 17.659325,10.53325 C 71.381562,376.85712 57.568334,384.37582 42.803065,384.2974 19.025318,384.3182 0,365.26689 0,342.35133 Z" />
  <path
     id="path645"
     d="m 600,122.43638 c 0,-1.57878 0,-3.21284 0,-4.90448 0,-1.80332 -0.16843,-3.55138 -0.50699,-5.24187 -0.22569,-1.69163 -0.39497,-3.38268 -0.50776,-5.07374 -0.11285,-1.69114 -0.33776,-3.2695 -0.67627,-4.73505 h -94.19352 l -28.58035,44.81367 h 72.37973 c -2.14305,7.55416 -5.24304,14.43123 -9.30116,20.63122 -3.94635,6.08831 -8.68147,11.38659 -14.20554,15.89609 v 0.16928 c -5.74967,4.50943 -12.12002,8.06081 -19.10886,10.65414 -6.87708,2.48043 -14.20555,3.72066 -21.98431,3.72066 -0.22569,0 -0.4514,0 -0.67709,0 -0.11284,0 -0.16926,0 -0.16926,0 -10.14634,0 -19.72952,-2.02909 -28.74846,-6.0883 -9.01903,-4.05803 -16.7413,-9.47033 -23.16814,-16.23456 -6.65138,-7.10276 -11.89324,-15.22009 -15.72675,-24.35187 -3.83349,-9.13178 -5.74967,-18.88316 -5.74967,-29.25519 0,-0.11285 0,-0.16928 0,-0.16928 0,-0.11283 0,-0.28211 0,-0.5078 0,-10.25918 1.91618,-19.89821 5.74967,-28.9174 3.83351,-9.13178 9.13179,-17.07992 15.89601,-23.844386 6.65139,-6.764309 14.48767,-12.175777 23.50668,-16.234485 9.01896,-4.058613 18.60213,-6.087884 28.74846,-6.087884 0,0 0.0581,0 0.16928,0 0.11284,0 0.16927,0 0.16927,0 0,0 0.0582,0 0.16845,0 0.22568,0 0.33853,0 0.33853,0 4.28382,0 8.5123,0.39497 12.68325,1.183827 4.28373,0.676253 8.39936,1.691056 12.34464,3.043898 l -0.84528,-0.338543 c 4.0592,1.465694 7.83519,3.156744 11.33016,5.073255 3.49496,1.916664 6.76423,4.00236 9.80887,6.257069 v -0.169266 l 12.68316,-20.123906 12.68327,-20.293173 c -4.7352,-3.26943 -9.80896,-6.200653 -15.22009,-8.793662 -5.29828,-2.59301 -10.82341,-4.79138 -16.57309,-6.595202 l -0.8453,-0.338545 C 516.23473,4.002524 510.20284,2.762363 503.77717,1.860494 497.35041,0.845775 490.86829,0.33846 484.32977,0.33846 c -0.2257,0 -0.39496,0 -0.50782,0 0,0 -0.11285,0 -0.33853,0 -0.11204,0 -0.2813,0 -0.507,0 -0.11284,0 -0.28211,0 -0.5078,0 -8.6804,0 -17.13626,0.789103 -25.36643,2.367563 -8.11725,1.57829 -16.00886,3.945851 -23.6748,7.1026 l 1.01456,-0.338545 c -7.44132,3.26943 -14.37373,7.046265 -20.8005,11.330409 -6.42567,4.283981 -12.2882,9.07553 -17.58765,14.374231 -6.31283,6.651627 -11.6687,13.190487 -16.06527,19.616755 -4.28383,6.651543 -7.83521,13.134145 -10.65309,19.447477 -2.81895,6.31341 -5.13018,12.68326 -6.93349,19.10936 -1.69164,6.20065 -3.21394,12.34495 -4.56595,18.43293 -2.59324,11.95073 -5.29935,23.33732 -8.11723,34.15966 -2.81904,10.82344 -8.62514,20.57588 -17.41837,29.25628 -3.38211,3.49497 -7.10278,6.70779 -11.16196,9.63968 -3.94528,2.81787 -8.06091,5.18543 -12.34473,7.1016 l -0.50781,0.33855 c -4.28373,1.69164 -8.79324,3.04473 -13.52846,4.0592 -4.62227,1.01456 -9.52568,1.5213 -14.71217,1.5213 0,0 -0.11286,0 -0.33855,0 -0.11285,0 -0.16928,0 -0.16928,0 -10.48379,0 -20.34911,-2.02912 -29.59383,-6.08714 -9.24461,-4.05921 -17.36195,-9.58327 -24.35187,-16.57319 -6.76423,-6.65138 -12.17535,-14.59934 -16.23455,-23.84406 -4.05812,-9.35749 -6.08714,-19.27921 -6.08714,-29.76409 0,-10.14635 1.9726,-19.72894 5.91788,-28.74813 3.94634,-9.13178 9.35748,-17.07991 16.23454,-23.844382 6.87708,-6.877086 14.93797,-12.344973 24.18261,-16.403508 9.24471,-4.17138 19.11001,-6.257068 29.5949,-6.257068 4.39665,0 8.6804,0.394962 12.85243,1.18382 4.17099,0.676259 8.28551,1.634632 12.34473,2.874797 h -0.6771 c 4.05921,1.240161 7.77986,2.818448 11.16198,4.735122 3.3821,1.803734 6.65138,3.833012 9.80779,6.087894 h -0.33772 l 12.85136,-20.124077 13.02173,-20.462195 c -4.62237,-3.15675 -9.63961,-6.031547 -15.05082,-8.624556 -5.29829,-2.593009 -10.87869,-4.79138 -16.74129,-6.595286 h -0.6771 C 312.11924,3.607639 306.08736,2.254796 299.66168,1.352843 293.34777,0.450973 286.86565,0 280.21427,0 c -0.11284,0 -0.28211,0 -0.50781,0 -0.11285,0 -0.22569,0 -0.3377,0 0,0 -0.058,0 -0.16928,0 -0.11284,0 -0.16927,0 -0.16927,0 -10.48488,0 -20.63122,1.296502 -30.4401,3.889511 -9.69495,2.480244 -18.82682,5.975206 -27.39545,10.484713 l 0.50782,-0.169268 c -8.45587,4.284148 -16.23464,9.526423 -23.33742,15.727072 -7.10275,6.200653 -13.41559,13.021465 -18.94065,20.46228 l -0.33772,0.169275 C 176.83198,43.79919 173.56165,37.654877 169.27782,32.130651 164.994,26.493659 159.92034,21.815038 154.05774,18.094634 h -0.16927 C 147.68848,14.035933 140.86782,10.879269 133.42651,8.624465 125.98636,6.256988 118.2065,5.073169 110.08977,5.073169 c -0.33854,0 -0.61984,0 -0.84562,0 -0.22569,0 -0.39496,0 -0.50698,0 H 0 V 239.4584 h 120.06776 c 0.22569,0 0.45055,0 0.67624,0 0.2257,0 0.39497,0 0.50782,0 7.21563,0 14.09269,-0.9017 20.63122,-2.70502 6.53853,-1.69165 12.73968,-4.11563 18.60219,-7.27205 l -0.50781,0.16927 c 5.52398,-3.04474 10.48489,-6.65137 14.88155,-10.82342 4.50943,-4.28382 8.28651,-9.01902 11.33008,-14.20553 l 0.33855,-0.50699 c 5.41122,6.20105 11.44301,11.72504 18.09438,16.57311 6.65247,4.84688 13.6988,9.07535 21.13905,12.68316 l 0.84526,0.16845 c 7.44131,3.38211 15.44571,6.03187 24.01443,7.94804 8.56753,2.03019 17.47371,3.04465 26.71836,3.04465 0,0 0.058,0 0.16925,0 0.11285,0 0.22571,0 0.33855,0 0.22569,0 0.39497,0 0.50698,0 0.11285,0 0.28213,0 0.50781,0 10.4849,0 20.68765,-1.29658 30.6083,-3.88993 9.92172,-2.48041 19.16645,-6.08823 27.73399,-10.82226 l -0.50699,0.50697 c 8.79325,-4.62235 16.7413,-10.0899 23.84407,-16.4039 7.10276,-6.42569 13.41668,-13.52846 18.94075,-21.30715 l 0.16927,-0.50781 c 5.41112,7.89154 11.61111,15.05074 18.60104,21.47757 7.10277,6.31285 14.76978,11.72397 22.99877,16.23457 l 0.50782,0.3377 c 8.56872,4.50953 17.81335,8.00448 27.734,10.48489 9.92064,2.59325 20.23623,3.88993 30.94682,3.88993 0,0 0.058,0 0.16927,0 0.11285,0 0.28212,0 0.50782,0 0.11202,0 0.22486,0 0.33772,0 0.11285,0 0.16927,0 0.16927,0 8.23016,0 16.23464,-0.8453 24.01333,-2.53685 7.77985,-1.69161 15.22009,-4.11453 22.32285,-7.27202 7.21561,-3.04357 13.97983,-6.76423 20.29266,-11.1609 6.31394,-4.5095 12.12014,-9.52675 17.41838,-15.05081 5.41116,-5.41112 10.20277,-11.38651 14.37479,-17.92503 4.17101,-6.42685 7.72237,-13.2475 10.6531,-20.46312 2.93183,-7.21445 5.18654,-14.76861 6.7653,-22.66023 1.69046,-7.77878 2.53577,-15.89601 2.53577,-24.35188 0,-0.11286 0,-0.22569 0,-0.33855 0,-0.11201 0,-0.22486 0,-0.33771 z M 50.56449,100.2828 V 48.366203 h 57.66629 c 0.11283,0 0.16926,0 0.16926,0 3.60789,0 6.93358,0.676259 9.97716,2.029353 3.04472,1.240161 5.80617,3.043899 8.28658,5.411547 h -0.16926 c 2.36755,2.367475 4.17203,5.07325 5.41229,8.117151 1.35193,3.043983 2.029,6.313498 2.029,9.808374 0,0 0,0.05804 0,0.169277 0,0.112845 0,0.169275 0,0.169275 0,0.22569 0,0.33853 0,0.33853 0,0 0,0.11285 0,0.33855 0,3.3822 -0.67707,6.65171 -2.029,9.80829 -1.24026,3.04407 -2.98832,5.74975 -5.24303,8.1173 h -0.16926 c -2.36757,2.3675 -5.0726,4.22774 -8.11732,5.58059 -3.04358,1.35293 -6.36927,2.02936 -9.97716,2.02936 0,0 -0.0582,0 -0.16926,0 z m 0,95.88513 v -53.2696 h 68.827 c 0.11285,0 0.16928,0 0.16928,0 3.72066,0 7.21561,0.67625 10.48488,2.02901 3.38211,1.35311 6.37041,3.15751 8.9626,5.41231 2.4804,2.36648 4.45416,5.18542 5.91894,8.45469 1.46595,3.26926 2.19829,6.7078 2.19829,10.31562 0,0 0,0.058 0,0.16927 0,3.83351 -0.73268,7.38487 -2.19829,10.65415 -1.46478,3.26926 -3.49496,6.14464 -6.08713,8.62397 -2.48041,2.48049 -5.4123,4.39774 -8.79441,5.74977 -3.26927,1.353 -6.82065,2.03009 -10.65416,2.03009 h -68.827 z"
     style="fill:#00522e;fill-rule:nonzero;stroke:none;stroke-width:11.0635" />
</svg>
