<svg height='300px' width='300px'  fill="#1A1A1A" xmlns="http://www.w3.org/2000/svg" xmlns:xlink="http://www.w3.org/1999/xlink" version="1.1" x="0px" y="0px" viewBox="0 0 100 100" style="enable-background:new 0 0 100 100;" xml:space="preserve"><style type="text/css">
	.st0{fill-rule:evenodd;clip-rule:evenodd;}
</style><g><path class="st0" d="M54.7,5.6c2.7,1.7,4.5,4.5,7.2,6.1C72.1,17.4,72.4,27.4,73.2,37c0.6,7.7-0.2,15.5-0.6,23.2   c-0.1,1.2-1.4,3.1-2.4,3.3c-12.8,2-25.7,2.2-39.2,0.1c-1-0.2-1.5-1.3-1-2.1c0.7-1.2,1.5-2.3,2.3-3.2c4.7-5.6,9.5-11,14.2-16.6   c2.7-3.2,2.4-4.3-1.6-5.5c-2.3-0.7-4.6-1.5-7-1.7c-1.4-0.1-2.9,0.7-4.4,1.6c-4,0.6-5.4-2.2-6.2-5.6c-0.7-3.2,0.8-4.7,3.3-6.4   c3.8-2.6,7.2-5.7,10.3-9.2c3.6-4.1,3.9-4.6,8.3-3.9c0.8,0.1,1.6-0.5,1.6-1.3c0-0.8,0.3-1.7,0.5-2.5C51.9,5.1,52.8,4.4,54.7,5.6z"></path><path class="st0" d="M42.2,94.6c-4.3-0.5-9.3-0.8-13.4-2.1c-2.7-0.8-2.2-2.6-1.8-4.2c15.6,2.6,30.8,3,46-0.7c0.8,2.7,0,4.2-2.3,4.6   c-3.9,0.8-7.8,1.9-11.7,2.3C53.4,95.1,47.7,95.2,42.2,94.6z"></path><path class="st0" d="M68.3,66.9c-3.4,3.3-1.3,5.9,1.6,8.5c2.8,2.5,4,5.7,3.3,9.7c-9.7,2.1-19.5,3.2-29.5,2.3c-4.7-0.4-9.4-1-14-1.8   c-2.2-0.4-3.2-1.4-2.6-3.3c0.9-2.5,1.8-5.2,3.6-7.1c2.4-2.7,4.4-4.9,1.8-8.3c5.5,0,10.7,1,16.1,1C55.1,67.9,61.8,66.9,68.3,66.9z"></path></g></svg>