<?xml version="1.0" standalone="no"?>
<!DOCTYPE svg PUBLIC "-//W3C//DTD SVG 20010904//EN"
 "http://www.w3.org/TR/2001/REC-SVG-20010904/DTD/svg10.dtd">
<svg version="1.0" xmlns="http://www.w3.org/2000/svg"
 width="748.000000pt" height="455.000000pt" viewBox="0 0 748.000000 455.000000"
 preserveAspectRatio="xMidYMid meet">

<g transform="translate(0.000000,455.000000) scale(0.100000,-0.100000)"
fill="#ff6e69" stroke="none">
<path d="M1351 4445 c-523 -92 -918 -519 -1023 -1105 -21 -120 -16 -423 9
-540 63 -295 211 -480 447 -561 105 -36 254 -52 356 -38 85 12 242 60 313 95
32 17 47 20 47 12 0 -7 -20 -94 -43 -193 -32 -133 -47 -180 -58 -178 -8 1 -53
16 -101 33 -125 44 -226 61 -363 62 -196 0 -312 -38 -464 -152 -132 -100 -229
-217 -303 -365 -70 -139 -96 -252 -104 -445 -20 -447 186 -772 544 -856 94
-22 336 -14 445 15 275 73 465 283 571 634 20 64 151 624 191 815 4 17 11 32
16 32 32 0 546 -333 794 -515 687 -505 1409 -872 2015 -1025 288 -73 474 -94
752 -87 306 7 534 60 773 176 507 248 925 773 1155 1451 33 98 90 313 90 340
0 8 -19 -14 -41 -50 -291 -458 -1244 -1088 -1823 -1205 -185 -37 -590 -30
-866 16 -314 52 -471 105 -1265 429 -596 242 -788 317 -960 375 -186 62 -413
123 -547 146 -38 6 -68 14 -68 18 0 4 16 77 35 162 20 85 85 375 146 644 60
270 121 536 134 593 14 57 25 105 25 108 0 2 -103 4 -229 4 l-229 0 -5 -22
c-3 -13 -38 -165 -77 -338 l-71 -315 -46 -43 c-64 -60 -154 -86 -274 -80 -69
4 -101 11 -143 32 -106 52 -180 153 -223 306 -26 93 -25 389 1 510 95 440 357
830 622 927 89 32 201 32 264 0 57 -29 106 -106 115 -182 13 -98 -43 -247
-113 -305 -21 -17 -31 -33 -27 -40 15 -24 128 -69 190 -75 120 -13 214 35 257
132 27 60 39 176 27 259 -25 182 -161 314 -389 375 -101 27 -359 35 -479 14z
m4 -2632 l31 -5 -47 -201 c-26 -111 -84 -362 -129 -557 -45 -195 -96 -391
-113 -435 -54 -143 -119 -224 -196 -245 -51 -14 -91 -5 -186 40 -224 107 -302
320 -225 619 44 175 108 304 225 459 134 178 281 300 387 322 45 9 201 11 253
3z m5659 -465 c-123 -214 -382 -511 -589 -677 -260 -209 -547 -349 -809 -396
-127 -23 -333 -17 -451 14 -165 43 -319 143 -369 240 -17 32 -17 33 2 27 115
-37 341 -60 507 -52 568 26 1111 278 1585 735 69 66 126 120 128 121 2 0 0 -6
-4 -12z"/>
<path d="M2783 4311 c-92 -42 -143 -101 -167 -194 -57 -217 149 -403 365 -332
77 26 152 103 175 180 40 139 -21 275 -151 336 -74 35 -157 39 -222 10z"/>
<path d="M4338 3634 c-77 -24 -128 -97 -128 -183 0 -48 31 -120 63 -147 27
-23 38 -26 87 -21 30 2 64 8 74 12 18 8 19 4 12 -81 -22 -295 -171 -711 -323
-902 -97 -123 -181 -176 -280 -176 -55 -1 -66 2 -89 26 -40 40 -41 96 -5 268
16 80 77 368 135 640 59 272 106 498 106 502 0 4 -115 8 -255 8 -140 0 -255
-2 -255 -4 0 -2 -34 -163 -75 -357 -42 -195 -96 -450 -121 -567 -51 -243 -68
-292 -129 -377 -84 -119 -211 -172 -309 -131 -50 21 -66 51 -66 123 0 58 21
162 210 1050 28 128 50 240 50 248 0 13 -34 15 -249 15 -138 0 -252 -4 -255
-9 -3 -4 -28 -116 -56 -247 -226 -1064 -227 -1071 -210 -1193 16 -113 46 -178
110 -242 47 -47 68 -61 124 -78 128 -40 296 -22 431 44 85 43 191 127 237 190
18 24 36 44 39 45 3 0 12 -19 18 -42 19 -62 75 -143 122 -177 72 -53 142 -73
264 -78 215 -10 385 56 555 214 271 250 478 807 483 1297 1 143 -17 217 -66
273 -60 68 -147 88 -249 57z"/>
<path d="M5460 3595 c-234 -50 -417 -184 -561 -414 -185 -294 -284 -771 -214
-1031 64 -241 240 -359 533 -360 249 0 448 86 627 272 45 45 91 96 103 112 12
16 24 27 25 25 2 -2 12 -35 21 -72 58 -217 241 -336 518 -337 315 0 513 146
597 443 11 37 17 67 13 67 -3 0 -32 -18 -63 -40 -130 -91 -293 -146 -388 -131
-119 19 -171 97 -179 267 -5 119 1 134 57 134 66 0 205 40 306 89 209 101 345
241 418 434 29 76 31 92 32 207 0 107 -3 132 -21 171 -60 129 -199 189 -413
176 -123 -7 -194 -26 -306 -81 -157 -78 -283 -202 -388 -383 -107 -186 -185
-437 -202 -648 -6 -76 -10 -84 -62 -162 -89 -134 -184 -207 -301 -232 -73 -15
-248 -13 -295 3 -93 34 -120 92 -125 278 l-4 137 23 5 c13 3 48 8 77 11 30 3
91 17 135 32 361 112 604 417 584 728 -8 111 -24 152 -82 211 -71 73 -136 96
-285 100 -72 2 -139 -2 -180 -11z m244 -198 c32 -32 40 -110 23 -212 -42 -235
-217 -428 -437 -479 l-60 -14 0 23 c0 40 66 256 108 353 77 178 169 304 247
338 47 21 93 17 119 -9z m1301 -1 c67 -67 31 -295 -71 -448 -58 -87 -141 -161
-229 -203 -64 -31 -168 -59 -179 -48 -14 14 89 324 147 438 116 231 253 340
332 261z"/>
</g>
</svg>
