<?xml version="1.0" standalone="no"?>
<!DOCTYPE svg PUBLIC "-//W3C//DTD SVG 20010904//EN"
 "http://www.w3.org/TR/2001/REC-SVG-20010904/DTD/svg10.dtd">
<svg version="1.0" xmlns="http://www.w3.org/2000/svg"
 width="416.000000pt" height="123.000000pt" viewBox="0 0 400 123"
 preserveAspectRatio="xMidYMid meet">

<g transform="translate(0.000000,123.000000) scale(0.100000,-0.100000)"
fill="#000000" stroke="none">
<path d="M555 1220 c-253 -52 -418 -278 -378 -516 57 -332 420 -487 743 -318
86 45 80 27 80 253 l0 201 -190 0 -190 0 0 -90 0 -90 100 0 100 0 0 -55 c0
-54 -1 -55 -37 -71 -58 -26 -174 -30 -230 -9 -211 81 -232 371 -35 478 102 55
230 42 332 -35 28 -21 53 -38 54 -36 1 2 28 37 60 78 l58 74 -34 28 c-111 91
-292 136 -433 108z"/>

<path d="M1207 834 c-4 -4 -7 -193 -7 -421 l0 -413 95 0 95 0 1 233 0 232 97
-192 97 -193 60 0 60 0 97 198 96 197 1 -237 1 -238 90 0 90 0 0 420 0 420
-98 0 -99 0 -119 -242 -120 -242 -120 240 -119 239 -95 3 c-53 1 -99 0 -103
-4z"/>
<path d="M2596 832 c-4 -7 -350 -786 -363 -820 -4 -10 17 -12 97 -10 l102 3
32 77 c17 43 36 82 42 88 7 7 72 10 179 8 l169 -3 38 -85 37 -85 102 -3 c94
-3 101 -1 95 15 -4 10 -86 199 -183 421 l-176 402 -83 0 c-46 0 -85 -4 -88 -8z
m135 -365 l47 -112 -95 -3 c-53 -1 -97 -1 -99 1 -5 5 89 227 96 227 3 0 26
-51 51 -113z"/>
<path d="M3140 750 l0 -90 120 0 120 0 0 -330 0 -330 95 0 95 0 0 330 0 330
125 0 126 0 -3 88 -3 87 -337 3 -338 2 0 -90z"/>
 <rect x="200" y="0" width="800" height="180" fill="#ffce00"/>
</g>
</svg>
