<?xml version="1.0" standalone="no"?>
<!DOCTYPE svg PUBLIC "-//W3C//DTD SVG 20010904//EN"
 "http://www.w3.org/TR/2001/REC-SVG-20010904/DTD/svg10.dtd">
<svg version="1.0" xmlns="http://www.w3.org/2000/svg"
 width="868" height="170" viewBox="0 45 868 170"
 preserveAspectRatio="xMidYMid meet">

<g transform="translate(0.000000,256.000000) scale(0.100000,-0.100000)"
fill="#092c75" stroke="none">
<path d="M477 2089 c-216 -18 -447 -60 -468 -85 -9 -11 -10 -56 -5 -182 9
-216 9 -216 55 -209 20 3 94 15 166 26 351 55 735 55 1090 0 77 -12 156 -24
176 -26 l36 -5 6 63 c9 85 8 321 -1 336 -9 14 -59 26 -224 53 -238 38 -579 50
-831 29z m227 -86 c64 -14 75 -14 145 3 47 11 115 18 181 18 92 0 111 -3 153
-25 46 -24 50 -29 107 -154 64 -141 70 -159 43 -151 -46 14 -266 35 -428 41
-193 7 -484 -6 -625 -29 -47 -8 -87 -13 -89 -11 -4 5 108 254 122 273 17 22
69 45 117 53 60 10 189 1 274 -18z"/>
<path d="M372 1943 c-21 -18 -87 -161 -79 -170 3 -2 58 1 123 7 66 6 162 8
217 4 118 -8 129 6 25 32 -48 12 -110 19 -179 19 l-106 0 23 63 c25 66 18 81
-24 45z"/>
<path d="M1146 1900 c13 -33 24 -61 24 -62 0 -2 -48 -3 -108 -3 -69 -1 -130
-7 -172 -18 -107 -29 -97 -37 45 -35 72 2 174 -1 227 -5 l96 -8 -36 85 c-34
78 -58 106 -92 106 -5 0 2 -27 16 -60z"/>
<path d="M1890 1901 c0 -10 10 -14 62 -25 19 -4 30 -15 35 -34 14 -48 9 -671
-6 -729 -18 -73 -38 -89 -95 -74 -25 6 -47 11 -50 11 -12 0 -36 -33 -36 -51 0
-16 7 -19 50 -19 28 0 66 6 84 14 49 20 103 82 127 145 20 52 22 80 28 391 l6
335 35 11 c19 6 36 16 38 23 3 8 -37 11 -137 11 -81 0 -141 -4 -141 -9z"/>
<path d="M4852 1898 c3 -7 19 -16 38 -19 18 -4 36 -13 41 -21 5 -7 9 -147 9
-310 0 -296 0 -297 -22 -312 -12 -9 -30 -16 -40 -16 -10 0 -18 -7 -18 -15 0
-13 22 -15 135 -15 113 0 135 2 135 15 0 10 -10 15 -28 15 -16 0 -37 6 -48 14
-17 13 -19 27 -19 158 l0 143 208 3 207 2 0 -144 c0 -155 -2 -160 -56 -175
-15 -4 -30 -13 -32 -19 -3 -10 28 -12 132 -10 133 3 177 15 106 29 -60 13 -60
14 -60 329 0 314 1 322 60 333 16 4 30 11 30 17 0 6 -49 10 -135 10 -137 0
-170 -10 -96 -30 21 -5 42 -17 45 -26 3 -9 6 -72 6 -140 l0 -124 -207 2 -208
3 -3 119 c-3 134 6 159 57 169 17 4 31 11 31 17 0 6 -50 10 -136 10 -103 0
-135 -3 -132 -12z"/>
<path d="M2380 1795 c-63 -21 -134 -76 -164 -127 -98 -168 -49 -363 115 -453
50 -27 62 -30 154 -30 89 0 105 3 150 27 65 34 118 90 147 153 17 39 22 68 22
135 0 134 -50 221 -159 278 -62 32 -194 41 -265 17z m198 -36 c87 -42 136
-148 135 -289 0 -91 -9 -123 -50 -182 -71 -103 -247 -104 -331 -2 -93 113 -96
349 -4 437 62 59 169 75 250 36z"/>
<path d="M4304 1792 c-75 -35 -108 -106 -85 -181 14 -48 52 -88 138 -144 93
-61 106 -77 111 -142 4 -50 2 -56 -27 -86 -30 -30 -35 -31 -91 -27 -67 5 -98
26 -131 91 -20 38 -39 49 -39 22 0 -7 5 -36 11 -64 9 -45 14 -51 50 -65 59
-24 155 -21 209 7 59 30 82 64 88 130 7 91 -28 140 -166 226 -71 45 -92 74
-92 128 0 64 31 93 102 93 63 0 94 -18 114 -66 22 -51 37 -43 32 17 -3 27 -10
55 -15 60 -6 6 -46 13 -89 15 -64 4 -87 1 -120 -14z"/>
<path d="M5840 1795 c-121 -39 -211 -162 -213 -293 -1 -128 55 -227 164 -287
50 -27 62 -30 154 -30 89 0 105 3 150 27 64 34 118 90 147 153 35 76 33 200
-5 277 -53 108 -156 169 -285 167 -37 0 -87 -7 -112 -14z m198 -36 c86 -42
136 -147 136 -290 0 -73 -4 -93 -28 -143 -38 -78 -86 -109 -175 -114 -55 -3
-74 1 -111 20 -92 50 -140 150 -140 292 0 162 80 255 219 256 36 0 70 -7 99
-21z"/>
<path d="M8433 1791 c-46 -22 -71 -53 -83 -106 -18 -78 22 -138 144 -222 89
-61 111 -91 111 -150 0 -38 -5 -49 -33 -74 -66 -59 -173 -30 -216 58 -28 57
-50 57 -41 1 16 -98 54 -122 182 -116 62 3 76 7 110 34 48 39 67 77 66 135 -1
80 -33 119 -165 208 -103 69 -126 134 -69 192 25 25 37 29 81 29 46 0 56 -4
86 -34 19 -19 34 -41 34 -50 0 -9 7 -16 15 -16 12 0 13 9 9 48 -9 67 -20 75
-111 79 -62 3 -86 0 -120 -16z"/>
<path d="M2820 1790 c0 -5 14 -13 32 -18 22 -5 35 -16 39 -33 9 -30 11 -456 3
-486 -3 -12 -19 -26 -35 -32 -59 -21 -31 -31 86 -31 114 0 151 12 79 26 -48 9
-55 33 -52 163 l3 106 170 0 170 0 3 -127 3 -126 -36 -12 c-62 -21 -38 -30 80
-30 72 0 115 4 115 10 0 6 -14 13 -30 17 -17 3 -35 14 -40 24 -6 10 -10 121
-10 254 0 133 4 244 10 254 5 10 23 21 40 24 16 4 30 11 30 17 0 6 -43 10
-115 10 -115 0 -147 -11 -82 -28 l32 -8 3 -117 3 -117 -176 0 -175 0 0 101 c0
55 4 108 10 118 5 10 23 21 40 24 16 4 30 11 30 17 0 6 -43 10 -115 10 -68 0
-115 -4 -115 -10z"/>
<path d="M3515 1790 c-3 -5 12 -14 35 -20 22 -6 44 -19 50 -30 11 -21 12 -449
1 -490 -4 -16 -17 -28 -39 -34 -59 -17 -33 -26 73 -26 58 0 105 4 105 9 0 11
-25 21 -51 21 -33 0 -40 42 -37 256 l3 204 145 -166 c80 -92 176 -203 214
-248 38 -44 73 -81 78 -81 5 0 10 124 11 276 2 299 3 302 58 313 17 3 28 10
24 16 -8 12 -215 14 -215 1 0 -11 25 -21 50 -21 11 0 25 -10 31 -22 16 -30 26
-408 11 -408 -14 0 -335 362 -370 417 l-27 42 -72 1 c-39 0 -74 -4 -78 -10z"/>
<path d="M6293 1794 c-22 -9 -14 -24 11 -24 54 0 56 -11 56 -271 0 -135 -4
-248 -10 -258 -5 -10 -23 -21 -40 -24 -16 -4 -30 -11 -30 -17 0 -6 45 -10 120
-10 75 0 120 4 120 10 0 6 -13 13 -30 16 -53 11 -55 18 -58 272 -2 129 -1 245
2 258 6 21 12 24 54 24 95 0 147 -60 140 -161 -5 -67 -27 -98 -90 -126 -49
-22 -49 -37 0 -29 60 11 135 52 155 85 48 82 21 185 -63 231 -41 22 -57 25
-185 27 -77 1 -146 0 -152 -3z"/>
<path d="M6740 1790 c0 -6 14 -13 31 -17 20 -4 34 -14 40 -30 12 -32 12 -464
0 -496 -5 -14 -21 -27 -35 -31 -59 -15 -22 -26 84 -26 68 0 110 4 110 10 0 6
-14 13 -31 17 -41 8 -49 33 -49 159 0 160 8 157 213 -80 l60 -70 -27 -9 c-49
-16 -15 -27 90 -27 101 0 136 12 77 26 -16 4 -43 21 -62 38 -46 42 -251 276
-251 286 0 13 205 197 237 213 15 8 40 17 56 21 58 14 24 26 -73 26 -66 0
-100 -4 -100 -11 0 -6 9 -13 20 -16 11 -3 20 -10 20 -16 0 -19 -228 -239 -242
-235 -16 6 -24 199 -9 227 6 10 24 21 41 24 16 4 30 11 30 17 0 6 -43 10 -115
10 -72 0 -115 -4 -115 -10z"/>
<path d="M7372 1788 c3 -7 18 -15 34 -18 27 -5 29 -9 36 -60 8 -74 9 -309 2
-404 -7 -74 -8 -76 -37 -84 -17 -4 -32 -13 -35 -20 -3 -9 26 -12 112 -12 73 0
116 4 116 10 0 6 -14 13 -31 17 -20 4 -34 14 -40 30 -5 13 -9 125 -9 248 0
123 4 235 9 248 6 16 20 26 40 30 17 4 31 11 31 17 0 6 -43 10 -116 10 -88 0
-115 -3 -112 -12z"/>
<path d="M7650 1790 c0 -6 13 -13 29 -16 64 -13 66 -22 65 -278 -1 -153 -5
-239 -12 -253 -7 -12 -25 -24 -42 -28 -59 -13 -17 -25 86 -25 103 0 138 13 69
26 -19 3 -40 13 -47 21 -16 19 -26 433 -10 433 6 0 106 -110 223 -245 118
-135 217 -245 221 -245 5 0 8 120 8 268 0 147 3 277 6 289 4 14 19 26 40 33
60 20 37 30 -71 30 -65 0 -105 -4 -105 -10 0 -6 13 -13 30 -16 52 -11 55 -21
58 -236 2 -109 1 -198 -2 -198 -13 0 -288 309 -354 397 l-47 63 -72 0 c-43 0
-73 -4 -73 -10z"/>
<path d="M565 1599 c-183 -8 -513 -54 -532 -72 -8 -8 22 -143 57 -252 104
-328 341 -638 603 -789 l47 -28 0 576 c0 455 -3 576 -12 574 -7 0 -80 -4 -163
-9z m-15 -139 c251 -128 159 -501 -124 -500 -206 1 -326 241 -207 415 28 42
115 101 160 108 47 9 132 -3 171 -23z"/>
<path d="M329 1420 c-19 -10 -41 -26 -48 -34 -11 -13 -9 -16 14 -22 14 -3 27
-5 28 -3 1 2 13 19 25 37 13 19 22 35 20 37 -1 2 -19 -5 -39 -15z"/>
<path d="M500 1435 c0 -3 10 -21 23 -40 22 -35 40 -42 65 -26 11 6 7 13 -15
28 -37 26 -73 45 -73 38z"/>
<path d="M450 1388 c0 -34 3 -38 25 -38 31 0 31 7 0 45 l-24 30 -1 -37z"/>
<path d="M386 1385 c-20 -31 -20 -32 4 -38 17 -4 20 0 20 29 0 41 -3 42 -24 9z"/>
<path d="M226 1299 c-9 -22 -16 -42 -16 -44 0 -3 20 -5 45 -5 45 0 45 0 45 34
0 29 -5 36 -29 44 -28 10 -30 9 -45 -29z"/>
<path d="M592 1327 c-22 -7 -31 -15 -27 -24 3 -8 5 -23 5 -34 0 -16 7 -19 44
-19 45 0 45 0 36 29 -15 53 -22 58 -58 48z"/>
<path d="M347 1303 c-4 -3 -7 -17 -7 -30 0 -20 5 -23 35 -23 30 0 35 3 35 24
0 29 -43 49 -63 29z"/>
<path d="M463 1303 c-7 -2 -13 -16 -13 -29 0 -21 4 -24 40 -24 41 0 47 9 34
44 -6 15 -36 20 -61 9z"/>
<path d="M214 1184 c3 -9 6 -21 6 -28 0 -7 6 -20 13 -29 10 -15 17 -16 43 -7
27 9 30 14 26 45 -4 34 -5 35 -49 35 -37 0 -44 -3 -39 -16z"/>
<path d="M342 1173 c2 -23 8 -29 36 -31 30 -3 32 -1 32 27 0 29 -3 31 -36 31
-33 0 -35 -2 -32 -27z"/>
<path d="M452 1173 c3 -25 7 -28 38 -28 31 0 35 3 38 28 3 26 1 27 -38 27 -39
0 -41 -1 -38 -27z"/>
<path d="M568 1164 c-5 -39 -5 -38 33 -48 23 -5 28 -2 37 22 24 64 25 62 -22
62 -43 0 -44 -1 -48 -36z"/>
<path d="M370 1091 c0 -5 9 -19 20 -32 l19 -24 1 33 c0 25 -4 32 -20 32 -11 0
-20 -4 -20 -9z"/>
<path d="M450 1063 l1 -38 24 28 c32 36 31 47 0 47 -22 0 -25 -4 -25 -37z"/>
<path d="M287 1081 c-17 -6 -16 -8 5 -28 22 -19 61 -43 72 -43 2 0 -5 18 -17
40 -22 41 -29 44 -60 31z"/>
<path d="M522 1050 l-22 -40 27 11 c16 6 38 20 51 32 21 20 22 22 5 28 -31 13
-37 10 -61 -31z"/>
<path d="M807 1604 c-4 -4 -7 -38 -7 -75 l0 -68 75 -51 75 -51 0 -164 0 -165
-42 26 c-24 15 -55 35 -70 45 -14 11 -29 19 -32 19 -3 0 -6 -149 -6 -331 0
-292 2 -330 15 -325 9 3 42 24 75 46 l60 41 0 234 c0 129 3 235 6 235 4 0 33
-18 65 -40 32 -22 61 -40 64 -40 3 0 5 72 5 160 0 88 2 160 6 160 3 0 32 -18
64 -40 32 -22 61 -40 64 -40 4 0 6 89 6 199 l0 198 -46 7 c-26 3 -57 6 -70 6
l-24 0 -2 -160 -3 -160 -67 45 -68 45 0 120 0 120 -47 0 c-27 0 -57 3 -68 6
-11 3 -24 2 -28 -2z"/>
<path d="M1380 1324 c1 -256 1 -256 60 -89 34 96 70 236 70 271 0 25 -11 31
-80 40 l-50 7 0 -229z"/>
<path d="M1230 1011 c0 -89 -3 -161 -7 -161 -4 0 -33 18 -64 40 -32 22 -60 40
-63 40 -3 0 -6 -57 -6 -127 l0 -127 31 30 c32 30 129 155 163 209 37 58 86
147 86 156 0 7 -78 64 -127 93 -10 6 -13 -28 -13 -153z"/>
<path d="M6860 898 c0 -7 -3 -24 -7 -38 l-6 -25 25 23 c17 15 37 22 66 22 l42
0 0 -135 0 -134 -27 -15 c-27 -15 -26 -15 40 -16 43 0 66 4 62 10 -3 6 -13 10
-21 10 -11 0 -14 25 -14 141 l0 140 47 -3 c39 -2 50 -7 60 -28 11 -22 13 -22
13 -5 0 11 3 31 7 44 5 21 4 22 -15 12 -26 -14 -238 -15 -247 -1 -9 14 -25 12
-25 -2z"/>
<path d="M2809 881 c19 -12 21 -23 21 -113 0 -155 22 -188 123 -188 99 0 127
45 127 201 0 77 2 88 21 100 19 13 16 14 -30 14 -28 0 -51 -3 -51 -7 0 -5 7
-8 15 -8 21 0 28 -37 24 -134 -5 -101 -25 -139 -79 -144 -89 -9 -110 23 -110
173 0 85 3 105 14 105 8 0 17 3 19 8 3 4 -22 7 -55 7 -54 0 -57 -1 -39 -14z"/>
<path d="M3380 889 c0 -4 9 -9 20 -12 19 -5 20 -14 20 -140 0 -129 -1 -134
-22 -145 -19 -9 -13 -11 37 -11 50 0 56 2 38 11 -28 14 -35 48 -31 157 l3 84
109 -124 c60 -68 113 -125 118 -127 4 -2 8 61 8 141 0 135 1 145 21 158 18 13
15 14 -34 14 -30 0 -53 -3 -50 -7 2 -5 10 -8 17 -8 18 0 26 -46 26 -144 l-1
-81 -79 85 c-44 47 -90 99 -102 117 -17 24 -31 32 -60 35 -21 2 -38 1 -38 -3z"/>
<path d="M3990 889 c0 -4 9 -9 20 -12 19 -5 20 -14 20 -135 0 -123 -1 -130
-22 -145 -22 -15 -20 -16 40 -16 40 -1 61 3 57 9 -3 6 -13 10 -21 10 -11 0
-14 24 -14 136 0 127 1 136 20 141 38 10 20 18 -40 18 -33 0 -60 -3 -60 -6z"/>
<path d="M4370 888 c0 -5 6 -8 14 -8 13 0 38 -51 102 -215 33 -86 40 -95 53
-64 70 166 115 257 136 274 l24 20 -49 0 c-28 0 -50 -3 -50 -7 0 -5 7 -8 15
-8 8 0 15 -4 15 -9 0 -12 -81 -203 -90 -214 -6 -7 -90 191 -90 213 0 6 5 10
10 10 6 0 10 3 10 8 0 4 -22 7 -50 7 -27 0 -50 -3 -50 -7z"/>
<path d="M4950 888 c0 -5 7 -8 15 -8 13 0 15 -22 15 -139 0 -135 -1 -139 -22
-147 -15 -5 17 -9 92 -11 100 -3 116 -1 127 14 7 9 13 26 13 37 -1 19 -3 18
-21 -6 -18 -24 -27 -28 -74 -28 -66 0 -77 12 -73 82 l3 53 37 3 c28 2 40 -2
52 -20 16 -22 16 -21 16 25 l0 47 -21 -21 c-14 -14 -30 -19 -52 -17 -32 3 -32
3 -35 66 l-3 62 48 0 c53 0 64 -5 81 -35 10 -18 11 -16 12 15 l0 35 -105 0
c-58 0 -105 -3 -105 -7z"/>
<path d="M5490 891 c-19 -5 -28 -9 -19 -10 25 -2 29 -22 29 -146 0 -105 -2
-116 -22 -135 l-22 -20 65 1 c52 0 60 2 42 11 -24 12 -33 35 -33 91 0 34 2 37
28 37 21 0 33 -10 57 -48 44 -70 72 -92 114 -91 29 0 32 2 15 9 -25 10 -78 69
-99 111 -16 29 -15 31 9 54 35 32 37 98 3 119 -27 18 -119 27 -167 17z m130
-31 c26 -26 26 -81 1 -104 -12 -11 -31 -16 -53 -14 -32 3 -33 4 -36 57 -2 29
-1 60 2 67 8 21 63 17 86 -6z"/>
<path d="M6025 875 c-16 -15 -25 -35 -25 -56 0 -32 6 -39 99 -117 76 -64 6
-153 -73 -91 -14 11 -26 27 -26 35 0 8 -5 14 -11 14 -14 0 -1 -62 15 -72 6 -4
35 -8 64 -8 43 0 58 5 77 25 47 46 28 107 -51 159 -57 38 -71 64 -54 96 22 41
91 34 105 -10 9 -27 25 -16 17 13 -7 30 -20 37 -70 37 -32 0 -49 -6 -67 -25z"/>
<path d="M6450 888 c0 -5 9 -8 20 -8 19 0 20 -7 20 -140 0 -115 -3 -140 -14
-140 -8 0 -18 -4 -21 -10 -4 -6 17 -10 57 -9 60 0 62 1 41 16 -22 15 -23 22
-23 145 0 121 1 130 20 135 38 10 20 18 -40 18 -33 0 -60 -3 -60 -7z"/>
<path d="M7400 888 c0 -5 7 -8 15 -8 9 0 33 -37 60 -90 56 -112 61 -170 18
-194 -27 -15 -26 -15 40 -16 43 0 66 4 62 10 -3 6 -13 10 -21 10 -11 0 -14 15
-14 61 0 53 5 69 41 130 22 38 49 75 60 82 28 17 24 22 -21 22 -38 0 -53 -9
-28 -17 8 -3 -1 -27 -26 -71 -20 -37 -39 -67 -41 -67 -11 0 -66 135 -56 138
26 9 7 17 -39 17 -27 0 -50 -3 -50 -7z"/>
</g>
</svg>
