<?xml version="1.0" standalone="no"?>
<!DOCTYPE svg PUBLIC "-//W3C//DTD SVG 20010904//EN"
 "http://www.w3.org/TR/2001/REC-SVG-20010904/DTD/svg10.dtd">
<svg version="1.0" xmlns="http://www.w3.org/2000/svg"
 width="1600" height="1300" viewBox="0 165 1600 1300"
 preserveAspectRatio="xMidYMid meet">

<g transform="translate(0.000000,1600.000000) scale(0.100000,-0.100000)"
fill="#1875d1" stroke="none">
<path d="M7655 14320 c-1163 -80 -2244 -522 -3130 -1281 -163 -139 -446 -425
-585 -589 -665 -789 -1080 -1713 -1219 -2720 -37 -270 -45 -400 -45 -730 0
-408 22 -654 95 -1030 264 -1366 1086 -2602 2254 -3389 674 -455 1420 -742
2218 -855 297 -42 417 -50 757 -50 340 0 460 8 758 50 1893 269 3504 1547
4207 3339 182 465 293 936 347 1480 16 171 16 739 0 910 -20 195 -59 457 -93
623 -256 1246 -949 2350 -1974 3147 -128 100 -357 256 -500 342 -694 417
-1453 665 -2275 743 -155 15 -654 21 -815 10z m285 -998 l0 -358 -190 -13
c-518 -33 -972 -146 -1439 -357 -377 -171 -744 -409 -1039 -673 -56 -50 -105
-91 -109 -91 -5 0 -114 106 -243 236 l-235 235 109 105 c297 284 676 552 1062
751 633 325 1311 500 2022 521 l62 2 0 -358z m533 332 c1019 -101 2015 -557
2742 -1257 l100 -96 -191 -190 c-154 -155 -195 -191 -217 -191 -30 0 -46 25
-28 43 16 16 14 62 -4 77 -8 7 -25 10 -37 7 -44 -12 -65 2 -77 48 -6 24 -11
64 -11 89 0 34 -4 46 -15 46 -8 0 -19 9 -25 20 -6 12 -21 20 -35 20 -21 0 -25
5 -25 28 0 22 -7 31 -32 43 -26 11 -34 21 -36 47 -3 32 -3 32 -60 32 l-57 0
-39 60 -38 60 -63 0 c-49 0 -66 4 -80 20 -10 11 -27 20 -37 20 -11 0 -28 5
-39 10 -14 8 -25 7 -41 -5 -13 -8 -39 -15 -60 -15 -26 0 -38 -4 -38 -14 0 -21
-23 -26 -114 -26 -79 0 -89 3 -188 49 -464 219 -985 346 -1540 377 l-128 6 0
360 0 360 133 -6 c72 -4 198 -14 280 -22z m-533 -1224 l0 -420 -72 0 c-181 0
-534 -59 -753 -125 -195 -59 -299 -101 -500 -200 -259 -127 -493 -284 -698
-466 -37 -33 -71 -59 -76 -57 -4 2 -140 133 -302 291 l-294 289 36 31 c168
150 232 203 353 293 628 471 1392 738 2221 777 33 2 66 4 73 5 9 2 12 -88 12
-418z m425 399 c418 -34 902 -162 1288 -341 88 -41 103 -59 67 -78 -12 -6 -20
-21 -20 -35 0 -23 4 -25 46 -25 41 0 47 -3 57 -29 6 -16 24 -36 42 -44 34 -16
65 -69 65 -111 0 -17 5 -26 16 -26 14 0 16 -9 11 -60 -5 -58 -4 -61 23 -75 15
-8 35 -22 44 -30 21 -21 21 -91 1 -129 -14 -26 -14 -31 -1 -38 24 -14 44 -64
51 -132 7 -60 9 -64 36 -70 22 -4 34 1 57 23 31 31 100 49 146 37 51 -13 129
-101 154 -173 9 -27 8 -36 -4 -48 -9 -8 -22 -15 -30 -15 -8 0 -14 -8 -14 -18
0 -9 -42 -58 -92 -108 -85 -83 -96 -90 -123 -85 -29 6 -30 9 -33 64 -3 56 -2
58 28 70 l30 13 -49 65 c-27 35 -68 83 -92 106 -38 36 -49 41 -86 40 -53 -2
-94 27 -108 74 -6 22 -40 64 -98 121 -116 114 -161 130 -169 57 -3 -21 1 -24
27 -22 24 2 40 -7 77 -44 55 -54 60 -82 21 -111 -23 -17 -25 -22 -14 -35 7 -9
27 -17 44 -19 29 -3 32 -6 35 -41 3 -30 13 -48 48 -81 30 -29 44 -51 44 -69 0
-26 -2 -25 -82 33 -46 33 -126 85 -180 117 -92 56 -112 77 -100 111 5 15 44
16 59 1 20 -20 58 -6 61 21 5 47 -97 92 -127 56 -10 -11 -19 -12 -42 -4 -45
15 -63 4 -56 -36 l5 -33 -136 62 c-341 155 -740 253 -1107 272 l-125 6 0 229
c0 220 1 230 20 235 10 3 26 16 35 29 8 13 22 24 30 24 16 0 19 18 7 37 -4 7
-26 16 -47 21 l-40 8 -3 125 -3 125 88 -3 c48 -2 147 -8 218 -14z m-3519 -852
l239 -234 -84 -89 c-439 -464 -787 -1101 -946 -1734 -63 -247 -115 -592 -115
-757 0 -32 -3 -82 -6 -110 l-7 -53 -305 0 -305 0 6 193 c14 425 94 867 232
1282 171 511 449 1022 778 1432 97 120 257 303 266 303 4 0 115 -105 247 -233z
m6673 106 c719 -828 1124 -1840 1158 -2890 l6 -193 -305 0 -305 0 -7 133 c-25
473 -136 948 -322 1385 -38 88 -44 109 -35 129 8 17 19 23 41 23 29 0 30 1 30
50 0 44 -4 53 -35 81 -19 18 -37 41 -41 53 -4 12 -20 37 -35 57 -16 20 -29 41
-29 46 0 5 -15 24 -34 42 -19 18 -37 46 -40 62 -3 17 -28 53 -55 82 -26 29
-52 62 -55 75 -6 17 -15 22 -39 22 -28 1 -40 11 -89 74 -32 41 -58 83 -58 94
0 12 -9 23 -19 27 -13 4 -21 17 -23 38 -3 29 -7 33 -47 43 -34 8 -57 23 -98
68 -30 32 -56 71 -60 87 -5 24 -10 29 -35 29 -30 0 -30 0 -24 48 6 46 12 53
218 255 116 114 215 207 219 207 4 0 57 -57 118 -127z m-3579 -642 l0 -459
-67 -7 c-226 -20 -406 -58 -578 -119 -221 -80 -466 -221 -633 -365 l-78 -68
-329 321 c-209 205 -326 326 -321 334 4 6 64 60 134 118 341 286 750 496 1177
604 219 56 388 81 673 99 l22 1 0 -459z m430 433 c338 -39 674 -141 985 -299
223 -113 467 -273 498 -327 9 -15 23 -28 32 -28 30 0 75 -40 75 -66 0 -17 6
-24 19 -24 22 0 81 -46 81 -63 1 -7 -144 -154 -321 -328 l-323 -316 -80 70
c-232 200 -575 369 -886 435 -94 20 -192 35 -322 47 l-68 7 0 459 0 459 93 -6
c50 -3 148 -12 217 -20z m-2651 -760 l44 -43 -73 -78 c-296 -316 -560 -789
-684 -1225 -56 -197 -97 -438 -111 -660 l-7 -108 -421 0 -420 0 7 141 c42 892
406 1756 1020 2424 l89 96 256 -252 c141 -139 276 -272 300 -295z m4791 89
c23 -26 44 -60 47 -75 4 -23 11 -28 34 -28 18 0 29 5 29 13 0 8 9 22 20 32 16
15 26 17 48 9 22 -8 30 -20 44 -73 9 -35 27 -79 40 -97 19 -28 29 -34 59 -34
23 0 39 -6 42 -14 3 -8 22 -18 43 -22 28 -5 43 -17 67 -50 29 -41 34 -44 76
-44 63 0 91 -17 118 -70 15 -28 36 -51 56 -60 18 -8 38 -28 46 -45 8 -16 29
-47 47 -68 19 -20 34 -43 34 -51 0 -8 12 -16 27 -18 21 -2 29 -10 37 -36 9
-32 10 -33 55 -26 25 4 66 20 89 36 24 17 47 26 52 22 4 -5 30 -65 58 -134
155 -386 248 -812 268 -1227 l7 -143 -420 0 -420 0 -7 103 c-4 56 -14 153 -22
215 -18 142 -19 199 -4 237 7 19 9 53 5 92 -4 41 -2 69 6 84 10 19 9 25 -7 36
-10 7 -34 13 -55 13 -35 0 -37 2 -52 48 -9 27 -12 48 -7 50 15 6 12 32 -4 32
-18 0 -34 47 -43 119 -4 36 -12 60 -24 68 -10 8 -15 21 -12 32 3 13 -2 23 -15
30 -18 9 -19 15 -10 44 15 50 -11 107 -49 107 -24 0 -33 9 -67 71 -38 71 -38
84 -1 91 30 5 31 42 0 66 -14 11 -28 33 -31 50 -5 23 -10 29 -26 24 -11 -2
-24 -16 -29 -30 -11 -30 -11 -30 -78 70 -42 64 -50 82 -45 107 6 28 3 32 -29
46 -26 11 -38 24 -47 50 -6 19 -20 40 -31 45 -10 6 -22 22 -25 36 -5 21 -11
24 -29 20 -18 -5 -30 2 -54 29 -26 30 -29 39 -20 62 8 21 7 28 -6 35 -8 5 -15
14 -15 21 0 6 35 46 77 89 87 87 86 87 153 11z m-4011 -860 c2 -1 -19 -27 -47
-58 -76 -83 -167 -208 -234 -322 -37 -62 -69 -105 -82 -109 -12 -4 -27 -15
-34 -25 -7 -10 -28 -21 -47 -25 -20 -3 -38 -10 -41 -15 -3 -5 -16 -9 -30 -9
-13 0 -24 -2 -24 -4 0 -2 -3 -11 -6 -20 -5 -13 3 -16 50 -16 60 0 64 -5 41
-49 -16 -33 -33 -41 -80 -41 -18 0 -38 -7 -45 -15 -7 -8 -29 -15 -49 -15 -26
0 -40 -6 -49 -21 -12 -18 -21 -21 -62 -17 -43 4 -52 2 -74 -21 -13 -14 -27
-40 -31 -58 -3 -17 -17 -39 -31 -47 -16 -11 -24 -26 -24 -44 0 -15 -9 -40 -20
-57 -11 -16 -20 -40 -20 -52 0 -13 -8 -24 -20 -28 -17 -6 -20 -15 -20 -75 0
-65 -2 -71 -30 -92 -22 -16 -30 -30 -30 -53 0 -17 -5 -36 -12 -43 -9 -9 -73
-12 -227 -12 l-214 0 6 123 c34 646 308 1293 759 1790 l71 79 326 -324 c179
-177 327 -324 330 -325z m3718 577 c18 0 51 -52 55 -85 2 -23 8 -30 24 -30 30
0 54 -24 54 -54 0 -31 16 -51 41 -51 16 0 137 -168 202 -281 31 -54 25 -66
-37 -76 -35 -5 -36 -7 -36 -48 0 -34 -4 -44 -20 -48 -12 -3 -20 -14 -20 -26 0
-17 6 -21 30 -21 22 0 30 -5 30 -18 0 -14 7 -17 38 -14 43 4 105 -31 111 -63
2 -11 27 -46 57 -77 35 -37 54 -65 54 -81 0 -14 7 -27 15 -30 12 -5 71 -171
80 -230 2 -12 13 -58 24 -102 33 -128 23 -225 -26 -254 -14 -8 -15 -10 -2 -11
13 0 15 -11 11 -61 -6 -80 8 -95 46 -49 l29 34 6 -64 c4 -34 7 -89 7 -121 l0
-59 -311 0 -310 0 7 23 c18 58 24 65 66 79 35 12 44 20 49 46 5 27 3 32 -12
32 -25 0 -24 13 6 59 29 43 58 51 186 51 75 0 89 10 105 75 9 40 22 55 47 55
11 0 35 16 54 37 31 32 34 40 28 72 -4 19 -13 48 -21 63 l-15 28 -39 -20 c-25
-13 -40 -27 -40 -39 0 -10 -7 -24 -15 -31 -8 -7 -15 -23 -15 -36 0 -40 -17
-69 -57 -97 -49 -34 -137 -38 -174 -8 -22 18 -22 19 -6 45 10 14 22 26 29 26
7 0 9 15 5 45 -6 39 -4 45 11 45 14 0 21 14 30 57 l12 57 -42 43 c-39 39 -46
43 -93 43 -38 0 -55 -5 -68 -20 -9 -11 -26 -20 -37 -20 -14 0 -20 -7 -20 -24
0 -43 -95 -105 -121 -79 -7 7 -5 25 5 54 9 24 16 54 16 67 0 20 -5 22 -47 22
-56 1 -81 16 -89 56 -3 16 -29 56 -58 88 -50 57 -54 59 -116 68 -39 5 -68 14
-73 23 -4 8 -18 15 -31 15 -54 0 -83 21 -142 103 -32 45 -64 93 -70 107 -11
26 -41 57 -97 102 l-29 23 324 322 323 322 30 -29 c17 -17 36 -30 42 -30z
m-2277 -475 l0 -414 -32 -5 c-18 -3 -55 -8 -83 -11 -27 -4 -84 -17 -128 -30
l-78 -22 3 41 c4 67 -34 49 -56 -26 -3 -10 -15 -18 -26 -18 -11 0 -23 -7 -26
-15 -4 -8 -15 -15 -25 -15 -12 0 -19 -7 -19 -18 0 -11 -17 -28 -41 -41 -23
-13 -71 -46 -107 -73 l-65 -49 -293 293 c-162 161 -294 296 -294 299 0 12 180
154 265 209 104 68 294 159 421 203 169 59 388 102 532 106 l52 1 0 -415z
m321 400 c351 -46 692 -193 971 -417 54 -44 98 -82 98 -85 0 -4 -7 -14 -16
-24 -14 -16 -17 -16 -52 1 -20 10 -43 28 -50 39 -16 28 -28 26 -36 -4 -5 -18
-13 -25 -30 -25 -29 0 -61 -34 -52 -56 5 -13 15 -15 50 -11 45 6 66 -4 66 -32
0 -9 -44 -60 -97 -113 -77 -77 -104 -98 -125 -98 -16 0 -37 -6 -48 -12 -41
-26 -70 28 -46 85 14 30 -13 19 -29 -13 -10 -18 -23 -30 -36 -30 -36 0 -59
-19 -59 -49 0 -16 -7 -31 -15 -35 -23 -8 -18 -34 9 -52 14 -9 22 -22 19 -30
-3 -8 5 -18 21 -25 l26 -12 -22 -24 c-13 -14 -33 -23 -53 -23 -17 0 -35 -4
-41 -10 -6 -6 -37 10 -86 44 -43 29 -104 66 -138 82 l-60 28 26 21 c24 19 53
105 54 158 0 28 -64 23 -83 -6 -9 -13 -29 -30 -46 -37 -22 -9 -31 -19 -31 -35
0 -13 -7 -25 -15 -29 -8 -3 -15 -12 -15 -19 0 -12 -13 -11 -77 4 -43 10 -95
19 -115 19 -73 0 -68 -33 -68 426 l0 414 48 0 c26 0 95 -7 153 -15z m-1199
-1096 c-16 -3 -34 -9 -41 -14 -8 -4 -25 1 -42 14 -33 25 -58 27 -85 6 -10 -8
-26 -15 -34 -15 -8 0 -78 45 -155 100 -77 55 -154 103 -172 106 -61 11 -168
-39 -185 -86 -10 -29 -37 -43 -59 -30 -9 6 -2 25 28 77 55 92 144 215 211 291
l55 64 254 -254 c244 -244 252 -253 225 -259z m2455 394 c60 -65 110 -148 116
-193 3 -25 9 -61 12 -81 6 -32 4 -38 -14 -44 -21 -6 -29 -3 -88 40 -22 16 -35
-14 -29 -68 4 -38 2 -49 -11 -54 -33 -13 -58 21 -89 120 l-19 59 24 19 c13 10
30 19 38 19 12 0 14 8 9 33 -5 29 -3 35 19 45 14 7 37 12 50 12 13 0 26 4 29
9 5 7 -92 21 -155 21 -30 0 -86 -51 -105 -97 -8 -17 -23 -34 -34 -38 -26 -8
-67 17 -82 51 -11 23 -7 30 57 94 73 74 73 74 198 78 41 2 52 -2 74 -25z
m-1523 -239 c8 -21 8 -114 0 -114 -20 0 -92 26 -106 38 -17 14 -18 11 -18 -45
0 -68 22 -99 75 -105 26 -3 30 -8 33 -35 l3 -33 63 0 c44 0 67 -5 76 -15 7 -8
28 -15 46 -15 29 0 44 -11 109 -77 42 -44 74 -87 74 -98 0 -33 -34 -65 -69
-65 -42 0 -35 -21 10 -33 23 -6 36 -5 38 2 2 5 13 25 26 43 25 38 59 47 87 22
20 -18 26 -59 9 -69 -19 -12 -11 -64 15 -89 14 -14 25 -32 25 -40 0 -8 -11
-28 -25 -44 -14 -17 -25 -34 -25 -40 0 -21 -43 -62 -65 -62 -12 0 -25 -7 -29
-15 -3 -8 -13 -15 -23 -15 -15 0 -16 -2 -3 -10 25 -16 69 -11 91 11 26 26 42
21 53 -18 6 -18 17 -34 27 -36 12 -3 15 -12 12 -31 -4 -18 0 -28 11 -32 13 -5
16 -22 16 -94 0 -95 15 -125 57 -114 31 8 37 -12 12 -45 -18 -24 -21 -38 -16
-74 5 -33 2 -48 -8 -57 -8 -7 -15 -23 -15 -35 0 -13 -7 -25 -15 -29 -8 -3 -15
-18 -15 -33 l0 -28 -72 2 c-40 1 -90 5 -110 9 -56 10 -88 -1 -88 -31 0 -17 -9
-29 -29 -39 -30 -16 -41 -34 -41 -67 0 -11 -7 -22 -15 -25 -11 -4 -15 -21 -15
-58 0 -46 -3 -55 -30 -74 -26 -20 -30 -29 -30 -71 0 -58 -4 -61 -105 -61 -143
0 -309 41 -450 112 -70 36 -195 122 -195 135 0 12 43 53 56 53 7 0 18 9 24 20
9 17 21 20 79 20 49 0 72 4 81 15 17 21 57 19 70 -4 13 -26 46 -16 67 20 13
21 25 29 45 29 23 0 28 4 28 24 0 14 7 31 15 40 9 8 15 33 15 58 0 37 4 45 30
60 17 10 32 28 35 45 4 15 10 36 16 45 14 26 11 49 -8 71 -17 18 -17 20 -1 31
20 15 6 36 -22 36 -9 0 -25 9 -35 20 -12 13 -31 20 -57 20 -38 0 -38 0 -38 39
0 74 -10 97 -48 115 -35 17 -35 17 -64 -12 -23 -22 -30 -41 -35 -85 -5 -51 -8
-57 -29 -57 -21 0 -23 -6 -29 -74 -6 -60 -11 -75 -25 -79 -11 -3 -20 -16 -22
-33 -3 -26 -9 -31 -55 -43 -48 -12 -53 -17 -59 -47 -3 -18 -16 -40 -29 -48
-17 -11 -26 -34 -40 -103 -9 -48 -19 -94 -21 -102 -7 -22 -58 32 -126 134 -53
80 -59 94 -55 129 4 24 0 47 -8 60 -10 14 -11 26 -5 36 8 13 13 13 39 -2 l30
-17 -20 51 c-33 85 -49 101 -104 110 -16 3 -21 14 -28 58 -4 30 -6 80 -5 110
4 67 19 73 76 33 48 -33 58 -59 31 -76 -19 -12 -23 -35 -13 -74 9 -31 31 -29
64 7 22 24 37 30 68 30 24 0 45 -6 53 -16 11 -14 15 -12 29 17 16 30 16 33 -2
51 -15 15 -16 22 -7 39 8 17 17 20 40 15 25 -5 32 0 53 30 20 30 23 41 14 65
-8 24 -6 35 8 57 10 15 23 36 29 47 6 11 23 21 38 23 24 3 27 7 27 43 0 37 -2
39 -31 39 -18 0 -37 -7 -43 -16 -14 -19 -46 -9 -46 15 0 9 16 26 35 39 27 17
35 29 35 51 0 16 6 31 15 35 8 3 15 17 15 31 0 23 3 25 48 25 38 0 59 7 93 30
24 16 55 30 69 30 16 0 45 18 77 45 54 47 58 66 24 92 -14 10 -14 13 0 30 9
10 19 33 21 51 4 30 2 32 -24 32 -17 0 -28 5 -28 14 0 7 -3 34 -6 59 l-6 45
53 11 c30 6 72 12 94 14 22 2 47 4 56 5 9 1 20 -5 23 -14z m-2129 -650 c78 -9
88 -24 82 -114 -3 -41 -12 -90 -19 -107 l-12 -33 -127 0 c-153 0 -161 5 -167
106 -4 57 -1 68 21 97 36 47 82 69 132 62 22 -3 63 -8 90 -11z m-1935 -381 c2
-168 37 -503 71 -683 23 -121 97 -417 110 -442 9 -16 3 -18 -62 -18 -91 0
-147 23 -156 63 -4 22 -11 27 -34 27 -17 0 -37 -9 -46 -20 -12 -13 -30 -20
-53 -20 -32 0 -37 -4 -49 -35 -12 -35 -53 -75 -76 -75 -7 0 -25 18 -41 41 -32
46 -27 53 38 64 42 7 51 29 16 39 -43 11 -166 7 -171 -6 -6 -19 -62 223 -92
392 -31 179 -53 373 -61 548 l-7 132 306 0 c169 0 307 -3 307 -7z m969 -150
c7 -87 14 -169 14 -183 2 -17 -4 -25 -18 -28 -81 -14 -90 -20 -103 -67 -7 -28
-18 -45 -27 -45 -8 0 -28 -19 -45 -42 -16 -24 -34 -47 -40 -53 -7 -5 -22 -20
-36 -32 -13 -12 -24 -33 -24 -48 0 -14 -4 -25 -10 -25 -5 0 -10 -26 -10 -57
-1 -35 -6 -66 -15 -77 -17 -22 -21 -146 -5 -146 5 0 13 -12 16 -26 5 -19 1
-29 -14 -40 -11 -8 -22 -26 -24 -41 -2 -22 -12 -29 -57 -44 -29 -10 -59 -26
-66 -35 -10 -14 -23 -16 -77 -11 -58 5 -68 4 -84 -14 -18 -20 -18 -20 -32 18
-95 268 -173 686 -188 1012 l-7 141 420 0 420 0 12 -157z m481 139 c0 -10 -17
-35 -39 -56 -36 -35 -38 -41 -33 -82 4 -39 2 -44 -19 -53 -20 -7 -27 -21 -37
-68 -16 -81 -16 -83 18 -83 28 0 30 -3 30 -35 0 -29 -6 -39 -35 -57 -24 -16
-33 -28 -29 -40 11 -37 -74 -13 -91 25 -6 12 -23 26 -40 31 -16 4 -37 12 -45
16 -18 9 -35 119 -46 298 l-7 122 187 0 c172 0 186 -1 186 -18z m543 1 c3 -10
8 -41 12 -69 l6 -51 -50 -42 c-43 -36 -51 -48 -51 -77 0 -27 6 -36 30 -49 21
-11 30 -23 30 -40 0 -27 -26 -35 -47 -14 -7 7 -20 8 -30 5 -16 -7 -14 -11 15
-37 40 -36 75 -36 80 0 4 26 43 64 53 53 3 -4 12 -34 19 -66 7 -33 28 -107 47
-165 90 -268 219 -496 398 -701 l66 -75 -328 -322 c-180 -177 -331 -321 -334
-320 -13 5 -119 131 -119 142 0 7 11 29 25 49 30 45 31 65 5 99 -11 14 -20 35
-20 46 0 33 -27 90 -60 127 -38 44 -52 99 -44 177 5 51 3 65 -10 76 -30 25
-13 71 26 71 33 0 32 84 -1 105 -6 3 -11 21 -11 40 0 33 -1 34 -42 37 l-43 3
-6 121 c-3 66 -9 127 -14 135 -5 7 -51 74 -102 147 -51 73 -93 141 -93 150 0
10 7 27 15 40 14 19 14 25 1 50 -8 16 -18 53 -22 81 -8 61 0 71 59 71 27 0 43
7 59 25 12 14 32 25 46 25 23 0 24 1 17 60 -5 46 -3 66 8 83 14 21 20 22 210
25 181 3 196 1 200 -15z m979 -23 c1 -22 2 -48 2 -57 1 -12 -6 -18 -21 -17
-15 0 -24 -7 -28 -23 -5 -20 -11 -23 -55 -23 -50 0 -50 0 -50 33 0 28 5 36 33
48 22 10 35 24 42 47 8 28 14 32 42 32 32 0 33 -2 35 -40z m4088 -27 c0 -94
-27 -316 -55 -454 -93 -462 -299 -896 -600 -1269 -51 -63 -111 -132 -132 -153
l-40 -38 -17 108 c-10 59 -18 108 -19 109 -1 1 -11 6 -21 11 -17 9 -19 20 -17
72 2 58 1 61 -21 61 -16 0 -36 -17 -68 -57 -25 -31 -48 -66 -53 -77 -7 -18 -9
-18 -37 9 -28 27 -29 30 -14 46 10 12 14 27 10 42 -4 17 0 30 14 42 11 10 20
30 20 45 0 16 7 30 15 34 11 4 15 21 15 61 0 40 4 57 15 61 12 5 15 29 15 129
l0 123 -35 31 c-29 25 -40 29 -55 21 -10 -5 -29 -10 -41 -10 -13 0 -33 -9 -45
-21 -19 -18 -20 -24 -11 -56 10 -32 9 -37 -12 -54 -13 -11 -33 -19 -45 -19
-12 0 -39 -9 -61 -20 -49 -25 -113 -27 -122 -4 -12 32 10 51 104 89 33 14 45
26 57 57 13 30 26 43 59 57 63 27 122 101 148 185 14 48 31 80 54 103 32 32
36 33 111 33 88 0 114 14 114 62 0 21 5 28 19 28 11 0 26 3 34 6 10 3 18 -2
22 -15 5 -17 15 -21 55 -21 39 0 50 4 63 24 12 18 24 23 55 22 27 0 52 8 80
27 33 21 53 27 97 27 50 0 55 2 61 25 13 54 -113 170 -209 190 -31 6 -67 56
-67 94 0 59 -84 221 -115 221 -16 0 -41 29 -49 58 l-7 22 365 0 366 0 0 -67z
m956 -71 c-43 -903 -412 -1770 -1043 -2452 -76 -82 -93 -81 -93 4 0 32 -7 65
-20 89 -15 28 -20 56 -20 114 0 121 -46 180 -130 167 -48 -8 -57 -24 -68 -115
l-7 -56 -160 153 c-124 119 -158 157 -150 168 6 7 45 54 89 102 442 499 706
1127 758 1807 l12 157 420 0 419 0 -7 -138z m730 6 c-50 -994 -434 -1968
-1081 -2743 -98 -118 -245 -275 -257 -275 -5 0 -102 91 -214 201 l-203 202 95
105 c255 282 463 582 620 894 259 517 397 1037 430 1626 l7 122 305 0 305 0
-7 -132z m-6519 -192 l42 -46 100 0 c99 0 100 0 121 -30 11 -16 25 -42 31 -58
10 -29 11 -30 40 -15 54 27 108 -5 81 -48 -9 -15 -8 -21 6 -31 10 -7 29 -27
42 -45 13 -18 27 -30 32 -27 5 3 19 -1 32 -10 23 -14 24 -14 28 9 3 13 1 28
-5 34 -16 16 0 41 26 41 47 0 62 -48 30 -97 -17 -25 -16 -26 10 -47 24 -19 27
-29 27 -79 0 -31 2 -57 5 -57 2 0 15 5 28 11 31 14 47 48 47 99 0 27 4 40 14
40 7 0 24 10 38 23 20 18 26 36 30 81 4 54 29 105 55 113 6 2 26 -20 44 -49
19 -29 53 -76 75 -104 l42 -51 -297 -297 -298 -298 -57 64 c-124 138 -239 324
-323 518 -41 96 -100 289 -117 383 -7 35 -6 37 11 29 10 -6 37 -31 60 -56z
m2217 -382 c11 -10 16 -34 16 -75 0 -64 -3 -67 -75 -85 -24 -6 -25 -5 -25 52
0 52 3 62 32 91 18 18 33 33 34 33 2 0 10 -7 18 -16z m-1032 -109 c131 -99
320 -178 491 -205 69 -11 78 -15 74 -32 -3 -11 3 -27 15 -38 20 -19 19 -58 -2
-45 -6 3 -10 -4 -10 -18 0 -14 -7 -28 -16 -31 -8 -3 -14 -14 -12 -23 1 -10 -1
-23 -5 -29 -4 -7 3 -14 18 -16 17 -4 25 -1 25 8 0 8 5 14 10 14 6 0 10 -11 10
-25 0 -14 -4 -25 -10 -25 -5 0 -10 -9 -10 -20 0 -11 -7 -20 -15 -20 -13 0 -14
-4 -5 -20 6 -11 18 -20 26 -20 12 0 14 -11 12 -57 -3 -53 -5 -58 -31 -67 -19
-7 -46 -6 -84 2 -63 13 -73 8 -73 -39 0 -15 -7 -29 -15 -33 -11 -4 -15 -22
-15 -76 l0 -72 30 7 c26 6 30 4 30 -14 0 -19 6 -21 68 -21 40 0 73 5 80 12 9
9 12 1 12 -40 l0 -51 -37 -6 c-21 -3 -51 -10 -68 -15 -24 -8 -32 -7 -41 5 -14
19 -38 19 -54 0 -17 -20 -52 -19 -166 6 -290 62 -591 211 -827 407 l-79 65
294 294 c161 161 296 293 300 293 4 0 40 -25 80 -55z m1834 -44 c-6 -38 6 -63
19 -41 16 26 105 -3 105 -34 0 -18 26 -27 55 -20 41 10 78 -75 39 -90 -35 -13
-83 -6 -98 15 -14 20 -16 21 -32 5 -24 -24 -76 -17 -89 12 -5 12 -14 22 -19
22 -5 0 -20 10 -33 22 -32 30 -33 110 -1 132 12 9 31 16 42 16 16 0 18 -5 12
-39z m-768 -129 c17 -17 16 -19 -28 -59 l-45 -40 -59 11 c-35 7 -62 19 -67 29
-16 29 -36 19 -42 -20 -4 -25 -20 -51 -49 -80 -30 -31 -37 -43 -25 -43 23 0
22 -27 -2 -40 -11 -5 -22 -10 -25 -10 -3 0 -6 47 -6 104 l0 103 93 14 c50 7
106 12 124 10 19 -1 34 3 40 12 7 14 30 23 61 26 6 0 20 -7 30 -17z m499 -133
c6 -6 46 -15 88 -20 81 -9 115 -27 115 -60 0 -24 -27 -49 -61 -56 -16 -3 -29
-9 -29 -13 0 -4 -31 -10 -69 -14 -62 -6 -70 -9 -75 -32 -4 -14 -14 -24 -24
-24 -10 0 -29 -11 -41 -24 -20 -21 -22 -30 -15 -84 5 -49 10 -62 29 -70 30
-14 93 5 101 30 7 24 87 78 114 78 31 0 70 -47 70 -85 0 -31 -6 -37 -92 -88
-171 -101 -299 -156 -480 -208 -97 -28 -115 -30 -149 -20 -38 11 -39 13 -39
56 0 36 -5 48 -25 61 -28 18 -75 12 -75 -10 0 -20 -23 -26 -95 -26 -94 0 -95
0 -95 84 0 66 2 75 28 99 18 18 48 31 85 38 31 7 62 18 68 25 10 12 41 0 119
-45 8 -5 33 -13 55 -18 34 -7 41 -12 43 -35 5 -39 18 -35 26 7 4 19 12 35 19
35 24 0 -21 31 -79 55 -57 23 -77 46 -57 66 5 5 37 6 72 3 63 -7 63 -7 97 -60
19 -29 34 -60 34 -68 0 -21 30 -35 61 -29 20 4 27 0 32 -16 3 -14 13 -21 30
-21 14 0 27 -7 31 -15 4 -10 20 -15 51 -15 38 0 45 3 45 20 0 13 -9 21 -27 25
-42 9 -58 20 -61 43 -2 13 -13 23 -32 27 -21 5 -30 14 -35 35 -10 44 21 90 40
60 3 -5 13 -10 22 -10 12 0 14 7 9 36 -6 30 -4 36 12 41 16 4 18 12 14 56 -3
29 -11 56 -18 60 -8 4 -14 17 -14 27 0 18 7 20 60 20 60 0 60 0 60 29 0 16 3
36 6 45 7 18 35 21 51 5z m-2266 -355 c107 -95 294 -221 424 -286 80 -40 232
-99 345 -134 97 -30 105 -34 102 -56 -3 -25 -45 -68 -67 -68 -7 0 -24 -13 -38
-30 -14 -16 -36 -32 -50 -35 -25 -7 -37 -36 -37 -90 0 -12 -7 -28 -15 -35 -8
-7 -15 -23 -15 -36 0 -14 -8 -25 -20 -29 -11 -3 -20 -13 -20 -21 0 -8 -10 -14
-25 -14 -29 0 -29 2 -10 -42 9 -23 25 -40 45 -48 46 -19 60 -37 60 -76 0 -27
4 -34 20 -34 11 0 20 -6 20 -13 0 -19 70 -161 83 -169 6 -4 23 -4 38 -1 23 4
30 0 43 -24 16 -33 55 -43 159 -43 31 0 57 -6 67 -15 12 -10 47 -18 104 -22
l86 -6 0 -50 0 -50 -112 7 c-682 42 -1335 311 -1819 747 l-80 73 323 323 c178
178 326 323 330 323 4 0 31 -21 59 -46z m2609 -189 c38 -19 83 -35 99 -35 15
0 34 -7 41 -15 7 -8 19 -15 28 -15 8 0 24 -8 35 -17 15 -14 37 -18 96 -18 59
0 82 -4 105 -19 17 -12 52 -22 89 -24 47 -4 69 -11 94 -31 18 -14 33 -29 33
-33 0 -17 -83 -32 -175 -32 -96 1 -103 2 -175 39 -41 20 -88 47 -104 58 -16
11 -49 21 -75 23 -73 5 -84 8 -121 31 -19 11 -54 27 -77 34 -51 15 -55 27 -10
31 28 3 32 6 29 31 -1 15 2 27 8 27 6 0 42 -16 80 -35z m-5381 -52 c11 -21 41
-59 68 -85 38 -37 56 -47 88 -50 37 -3 40 -5 43 -35 3 -30 6 -33 37 -33 50 0
87 -37 115 -116 17 -48 36 -81 67 -111 37 -38 48 -43 88 -43 25 0 45 5 45 10
0 6 8 10 18 10 21 0 57 -36 66 -66 4 -12 37 -50 74 -86 61 -58 73 -65 132 -77
76 -14 78 -16 150 -101 30 -36 92 -106 137 -156 l82 -90 -208 -208 -208 -207
-79 84 c-311 328 -586 727 -789 1142 -95 195 -116 244 -93 214 39 -48 88 -43
106 11 15 41 38 38 61 -7z m6411 -558 l114 -115 -27 -28 c-28 -29 -28 -29 -9
-53 17 -20 22 -21 36 -10 9 7 16 24 16 37 0 13 4 24 8 24 4 0 30 -22 56 -49
46 -47 48 -51 38 -80 -10 -28 -9 -33 13 -47 18 -12 25 -25 25 -48 0 -17 7 -42
16 -54 13 -19 24 -22 88 -22 114 0 115 -12 9 -107 -99 -88 -209 -178 -298
-244 -96 -70 -228 -159 -237 -159 -17 0 -7 48 13 66 30 27 49 68 49 107 0 38
-20 61 -61 71 -56 13 -44 64 21 90 31 12 40 21 40 40 0 18 17 40 60 77 56 48
60 55 60 94 l0 42 -150 123 -150 123 0 53 0 52 73 66 c39 36 74 66 77 66 3 0
57 -52 120 -115z m-4038 -201 c308 -213 639 -359 1026 -453 134 -33 340 -66
467 -76 44 -3 108 -8 143 -11 l62 -6 0 -415 0 -416 -122 7 c-551 31 -1046 155
-1530 384 -335 159 -679 389 -956 640 l-83 75 63 64 63 64 15 -50 c8 -27 18
-53 22 -57 4 -3 77 -3 163 1 l156 7 51 44 52 44 142 0 c124 0 145 2 165 19 38
31 27 117 -22 164 -11 10 -19 29 -19 44 0 23 2 24 19 12 11 -8 66 -46 123 -85z
m-1089 -13 c16 -10 42 -35 59 -55 l31 -37 -39 -40 -38 -39 -29 28 c-16 15 -47
48 -68 74 -39 45 -39 47 -22 67 22 26 69 27 106 2z m3089 -292 c22 -11 58 -19
87 -19 44 0 52 -4 75 -32 23 -30 24 -33 8 -39 -18 -7 -262 -29 -319 -29 l-34
0 3 67 c3 62 5 68 28 74 36 11 108 0 152 -22z m-2912 -194 c669 -582 1571
-943 2456 -983 l149 -7 3 -297 2 -298 -33 0 c-73 0 -360 22 -472 36 -807 101
-1561 400 -2208 877 -131 96 -313 246 -412 340 l-70 66 207 207 207 207 40
-34 c21 -19 81 -70 131 -114z m5720 -60 l204 -204 -24 -27 c-51 -54 -306 -269
-433 -364 -657 -489 -1414 -792 -2232 -894 -112 -14 -399 -36 -472 -36 l-33 0
0 298 0 299 148 6 c272 12 518 48 797 117 151 38 163 39 205 27 38 -12 46 -19
53 -48 12 -48 20 -53 58 -36 19 8 60 18 93 21 44 5 67 14 94 36 20 17 48 30
62 30 18 0 94 58 270 206 141 118 287 231 345 267 180 112 388 270 569 435 44
39 83 72 86 72 3 0 97 -92 210 -205z m-2550 45 c0 -5 35 -20 78 -34 76 -24 77
-24 86 -64 7 -32 14 -41 35 -45 19 -4 29 -15 39 -44 24 -71 25 -82 3 -118 -29
-50 -30 -141 -1 -150 13 -4 20 -15 20 -33 0 -41 55 -92 100 -92 31 0 45 -9
105 -70 47 -48 64 -71 54 -74 -166 -58 -693 -136 -921 -136 l-38 0 0 414 0
415 53 5 c28 3 95 8 147 12 52 3 115 10 140 14 66 11 100 11 100 0z"/>
<path d="M8737 13415 c-21 -19 -39 -25 -74 -25 -29 0 -58 -8 -79 -21 -21 -12
-46 -19 -66 -17 -30 3 -33 1 -36 -29 -3 -28 0 -32 33 -43 46 -15 125 -5 125
16 0 11 24 14 134 14 l134 0 26 34 c14 19 26 44 26 55 0 19 -6 21 -59 21 -33
0 -63 5 -66 10 -12 19 -69 10 -98 -15z"/>
<path d="M8265 13300 c-42 -22 -86 -40 -98 -40 -24 0 -67 -25 -67 -39 0 -4 35
-11 78 -15 42 -3 79 -11 81 -17 10 -32 43 -49 91 -49 44 0 54 -5 100 -45 28
-25 57 -45 65 -45 31 0 25 23 -19 75 -27 31 -46 63 -46 77 0 13 -4 28 -9 34
-5 5 -14 26 -20 46 -9 27 -20 39 -43 47 -17 6 -32 11 -34 11 -2 0 -37 -18 -79
-40z"/>
<path d="M10338 12694 c-35 -18 -38 -58 -5 -78 12 -7 45 -21 73 -30 30 -10 64
-31 84 -51 19 -19 38 -35 42 -35 12 0 0 66 -19 112 -20 47 -83 98 -120 98 -15
-1 -40 -8 -55 -16z"/>
<path d="M9020 12131 c0 -5 6 -14 14 -20 7 -6 16 -27 19 -47 7 -43 23 -64 49
-64 10 0 31 -12 45 -26 14 -15 45 -33 68 -40 22 -8 68 -37 100 -64 44 -35 61
-45 63 -34 6 26 -6 43 -43 58 -20 9 -39 26 -45 40 -6 17 -22 29 -49 37 -44 13
-115 78 -93 86 6 3 12 11 12 18 0 10 -12 13 -42 12 -40 -2 -43 0 -46 26 -3 21
-9 27 -28 27 -13 0 -24 -4 -24 -9z"/>
<path d="M10656 10868 c8 -63 9 -63 51 -76 22 -7 52 -23 67 -37 20 -18 34 -23
52 -19 13 3 24 11 24 18 0 11 -11 18 -77 50 -18 8 -33 19 -33 24 0 13 -66 82
-79 82 -7 0 -9 -14 -5 -42z"/>
<path d="M10760 10672 c0 -5 9 -17 19 -26 11 -10 21 -28 23 -40 2 -16 11 -22
36 -24 39 -4 54 -32 51 -97 -3 -50 3 -61 36 -67 42 -8 51 23 21 69 -13 21 -30
57 -37 80 -9 31 -19 45 -41 54 -16 7 -36 23 -45 36 -15 22 -63 33 -63 15z"/>
<path d="M10986 10322 c4 -21 -1 -33 -20 -51 -30 -28 -32 -43 -11 -61 8 -7 17
-34 21 -60 4 -33 14 -56 30 -71 14 -13 24 -34 24 -50 0 -16 8 -32 22 -41 18
-12 21 -23 19 -71 -2 -47 2 -60 21 -79 l23 -23 3 59 c2 41 -1 62 -10 67 -9 6
-12 31 -10 88 2 71 0 80 -17 86 -11 3 -22 19 -26 35 -4 17 -11 32 -16 35 -5 4
-9 26 -9 50 0 43 -26 115 -42 115 -4 0 -5 -12 -2 -28z"/>
<path d="M10280 10553 c-14 -7 -33 -11 -42 -9 -12 3 -21 -10 -35 -53 -17 -54
-19 -56 -56 -59 l-38 -3 30 -41 c29 -39 30 -43 14 -60 -10 -11 -12 -18 -4 -18
14 0 5 -45 -16 -78 -9 -15 -20 -21 -32 -17 -22 7 -50 -22 -53 -55 -3 -22 2
-25 45 -33 58 -11 97 -3 97 21 0 34 21 42 117 42 53 0 93 4 93 10 0 18 -39 30
-97 30 -92 0 -147 43 -79 61 39 11 47 26 40 77 -7 45 -2 51 22 27 39 -39 67
-1 39 51 -18 33 -18 35 -1 47 17 13 17 15 0 43 -18 28 -21 29 -44 17z"/>
<path d="M8863 10243 c-36 -5 -47 -33 -13 -33 12 0 36 -16 56 -35 38 -39 67
-44 104 -18 32 22 40 33 40 60 0 20 -3 21 -26 12 -21 -7 -31 -6 -44 6 -16 14
-47 16 -117 8z"/>
<path d="M8698 10223 c-36 -9 -17 -23 32 -23 38 0 50 4 50 15 0 15 -41 19 -82
8z"/>
<path d="M7550 9156 c0 -9 -7 -16 -15 -16 -20 0 -19 -20 2 -35 16 -12 16 -15
-2 -49 -11 -20 -26 -36 -33 -36 -15 0 -122 -98 -122 -113 0 -5 -14 -38 -30
-72 l-30 -64 -55 -6 -55 -7 -7 -42 c-3 -22 -6 -43 -6 -46 13 -77 11 -75 58
-91 l45 -17 0 24 c0 13 9 28 20 34 12 6 20 21 20 36 0 14 14 45 30 69 17 24
30 48 30 54 0 16 61 51 87 51 30 0 59 42 68 97 9 63 18 78 55 93 28 11 30 16
30 61 0 37 -4 49 -15 49 -8 0 -15 7 -15 15 0 8 -6 15 -14 15 -8 0 -21 3 -30 6
-11 4 -16 1 -16 -10z"/>
<path d="M7677 8213 c-13 -12 -7 -70 8 -83 8 -6 31 -14 52 -17 31 -4 43 0 66
21 15 14 27 29 27 34 0 11 -48 22 -90 22 -16 0 -30 7 -34 15 -6 16 -18 19 -29
8z"/>
<path d="M5670 8746 c0 -9 6 -16 14 -16 30 0 46 -114 29 -213 -7 -46 -22 -54
-63 -34 -29 15 -30 15 -36 -9 -9 -37 1 -52 46 -64 28 -7 45 -19 52 -36 l12
-25 18 23 c15 20 18 46 18 201 l0 177 -29 0 c-16 0 -36 3 -45 6 -11 4 -16 1
-16 -10z"/>
<path d="M5751 8318 c-27 -17 -37 -19 -52 -10 -28 18 -29 16 -29 -43 0 -48 5
-62 37 -105 21 -28 40 -50 44 -50 3 0 11 18 18 41 7 23 15 47 17 54 3 8 -4 16
-16 20 -19 6 -21 12 -16 44 3 20 13 42 23 48 30 22 9 23 -26 1z"/>
<path d="M7769 7764 c-19 -46 -18 -84 3 -84 7 0 26 5 44 12 34 12 54 43 54 82
0 19 -4 22 -24 19 -13 -3 -27 0 -30 6 -13 21 -27 11 -47 -35z"/>
<path d="M12451 14283 c134 -220 414 -631 522 -767 84 -106 173 -175 392 -305
172 -103 404 -226 411 -218 14 14 -179 417 -273 571 -178 289 -324 416 -679
594 -119 59 -363 162 -384 162 -7 0 -2 -16 11 -37z"/>
<path d="M3450 14201 c-312 -125 -547 -244 -692 -351 -173 -127 -395 -448
-503 -728 -41 -106 -77 -232 -66 -232 14 0 235 135 356 218 323 218 543 432
799 772 115 153 261 368 254 375 -2 2 -69 -22 -148 -54z"/>
<path d="M13862 13702 c43 -111 88 -205 145 -305 54 -93 65 -129 138 -466 40
-179 79 -295 178 -531 79 -187 95 -239 81 -277 -33 -94 -180 -24 -399 188
-133 129 -189 168 -415 289 -85 46 -182 100 -215 120 -245 150 -292 182 -382
258 -29 24 -53 39 -53 34 0 -20 74 -191 116 -270 55 -100 143 -218 216 -289
29 -28 123 -100 208 -159 327 -227 938 -675 1004 -735 38 -35 92 -91 119 -124
l50 -60 -6 345 c-15 755 -52 1147 -123 1295 -87 183 -279 409 -554 653 -143
128 -144 128 -108 34z"/>
<path d="M2120 13684 c-259 -179 -473 -391 -579 -572 -104 -179 -141 -363
-161 -810 -6 -123 -20 -285 -31 -360 -26 -169 -23 -411 7 -530 l19 -73 44 68
c25 37 106 129 180 203 154 153 220 201 546 390 116 68 242 146 282 174 225
162 442 401 591 648 55 92 105 188 97 188 -2 0 -62 -47 -132 -105 -173 -142
-248 -193 -431 -292 -471 -254 -562 -324 -649 -504 -28 -57 -56 -121 -63 -142
-6 -21 -17 -36 -23 -34 -6 2 -33 31 -59 66 -55 71 -82 151 -76 220 3 25 40
133 82 240 93 232 95 239 141 461 43 203 99 378 148 458 51 85 182 372 169
372 -4 -1 -50 -30 -102 -66z"/>
<path d="M14960 12517 c0 -4 21 -110 46 -235 l46 -227 -6 -245 c-6 -258 -25
-522 -53 -730 -20 -144 -21 -199 -9 -445 7 -155 6 -185 -7 -217 -9 -21 -22
-39 -29 -39 -63 -6 -111 46 -353 381 -306 426 -420 540 -779 782 -71 48 -132
86 -134 83 -2 -2 20 -50 50 -107 74 -139 178 -362 248 -535 115 -280 265 -495
654 -938 175 -198 287 -353 341 -468 l31 -68 63 172 c68 187 126 318 212 479
149 278 181 430 195 920 6 207 5 234 -15 340 -51 265 -196 607 -404 955 -68
114 -96 156 -97 142z"/>
<path d="M947 12412 c-244 -370 -389 -716 -433 -1029 -21 -151 -30 -561 -15
-693 26 -222 79 -404 168 -577 31 -60 71 -137 89 -173 57 -110 133 -368 134
-452 0 -40 13 -35 34 13 48 109 141 225 322 404 450 444 583 623 813 1095 91
187 231 508 231 531 0 20 -400 -233 -515 -326 -171 -138 -405 -376 -560 -569
-67 -84 -215 -287 -241 -332 -10 -17 -13 -17 -28 -5 -10 8 -32 42 -49 75 -24
49 -31 77 -35 141 -3 72 -1 86 26 145 57 126 88 318 78 485 -3 56 -19 169 -36
252 -36 180 -37 254 -10 428 29 178 98 679 95 683 -2 2 -32 -41 -68 -96z"/>
<path d="M15732 10285 c-23 -82 -53 -204 -66 -270 -23 -114 -62 -223 -111
-310 -12 -22 -67 -119 -122 -215 -193 -337 -227 -423 -293 -750 -46 -224 -68
-290 -98 -290 -65 0 -160 214 -197 444 -24 147 -68 228 -328 610 -94 137 -194
295 -223 352 -52 102 -139 241 -187 299 l-25 30 4 -85 c30 -541 64 -849 115
-1050 14 -54 85 -205 252 -540 233 -464 325 -665 403 -878 l41 -113 59 68 c33
37 75 88 94 113 19 25 75 90 124 145 307 343 506 723 595 1137 49 228 56 313
56 698 0 355 -7 458 -43 705 l-7 50 -43 -150z"/>
<path d="M157 10225 c-10 -207 -8 -749 3 -930 22 -346 59 -542 146 -762 133
-340 359 -678 642 -960 68 -67 127 -123 131 -123 4 0 26 65 49 145 87 301 187
518 395 849 55 89 124 206 153 261 87 164 152 425 214 855 26 185 60 481 56
487 -7 8 -500 -717 -613 -902 -115 -187 -121 -200 -198 -425 -79 -228 -110
-295 -160 -339 -47 -41 -97 -41 -128 1 -18 24 -23 54 -33 212 -21 307 -33 341
-297 873 -183 369 -205 422 -241 573 -24 101 -71 243 -99 297 -12 23 -14 11
-20 -112z"/>
<path d="M14110 8394 c0 -5 -11 -88 -25 -184 -70 -497 -83 -803 -46 -1070 62
-449 75 -586 75 -860 1 -199 -3 -301 -17 -410 -18 -143 -58 -367 -73 -404 -10
-25 246 147 485 326 242 182 402 319 595 508 293 286 442 493 547 757 82 207
191 542 279 863 28 102 53 192 56 200 8 22 1 13 -73 -100 -181 -275 -269 -376
-498 -569 -188 -160 -267 -244 -379 -407 -123 -177 -224 -310 -327 -428 -81
-94 -249 -267 -249 -256 0 3 7 91 15 195 9 105 18 305 21 445 8 296 2 342 -72
573 -50 155 -172 487 -254 692 -51 128 -60 147 -60 129z"/>
<path d="M1840 8183 c-182 -396 -311 -788 -355 -1078 -20 -134 -19 -262 5
-490 30 -286 27 -315 -31 -315 -62 0 -162 132 -399 525 -73 121 -156 253 -184
294 -53 78 -206 236 -507 526 -183 176 -222 226 -313 396 -25 46 -46 78 -46
70 0 -37 54 -357 77 -456 70 -302 335 -828 597 -1190 134 -185 248 -304 472
-490 185 -153 611 -470 766 -570 l28 -17 -5 28 c-2 16 -12 83 -21 149 -9 66
-32 197 -51 290 -33 160 -35 178 -30 305 4 95 21 223 56 430 82 479 85 514 84
800 -1 246 -18 526 -48 809 -9 74 -17 136 -19 138 -1 2 -36 -68 -76 -154z"/>
<path d="M13608 6815 c-9 -22 -57 -125 -106 -230 -191 -405 -336 -750 -391
-930 -58 -188 -87 -355 -161 -905 -48 -352 -100 -530 -200 -676 l-33 -47 74 7
c137 13 423 57 592 91 513 104 880 240 1132 420 536 383 900 949 1060 1650 5
24 -3 17 -46 -40 -140 -186 -361 -415 -519 -536 -113 -87 -196 -138 -505 -314
-411 -233 -659 -383 -729 -441 -36 -30 -112 -110 -168 -178 -57 -68 -118 -134
-136 -146 -45 -31 -90 -29 -121 6 -21 25 -23 35 -19 103 6 90 40 182 151 411
126 259 163 407 160 635 -16 1109 -17 1162 -35 1120z"/>
<path d="M2408 6603 c-4 -103 -11 -159 -29 -223 -23 -82 -24 -96 -23 -435 0
-362 10 -509 54 -820 25 -176 45 -243 126 -428 76 -173 83 -217 41 -253 -36
-31 -84 -31 -128 -1 -18 12 -81 78 -138 147 -223 264 -259 291 -706 526 -311
162 -463 251 -576 335 -71 52 -197 188 -468 504 -90 105 -170 197 -178 205
-23 24 42 -116 199 -430 217 -437 376 -707 492 -841 233 -268 722 -558 1254
-743 193 -66 430 -109 752 -136 74 -6 153 -13 174 -16 l39 -5 -25 33 c-77 102
-173 308 -221 473 -37 127 -52 222 -82 530 -54 558 -91 768 -171 958 -28 66
-301 615 -352 705 l-29 54 -5 -139z"/>
<path d="M12460 5117 c-206 -192 -541 -533 -641 -652 -146 -174 -196 -252
-349 -546 -134 -257 -216 -383 -313 -481 -128 -129 -318 -272 -468 -352 l-82
-44 54 -6 c149 -15 182 -16 268 -6 56 6 117 21 153 36 43 18 87 27 148 31 151
10 290 -24 500 -122 170 -80 237 -95 462 -102 682 -22 1394 232 1854 660 154
144 294 328 380 499 75 150 78 147 -54 61 -501 -327 -707 -440 -907 -498 -204
-59 -298 -65 -820 -55 -169 4 -186 2 -277 -22 -54 -15 -146 -48 -205 -73 -228
-99 -223 -98 -303 -98 -70 0 -180 25 -180 41 0 4 19 20 41 36 67 47 158 136
238 231 213 255 367 569 516 1053 65 211 156 543 153 554 -2 5 -77 -61 -168
-145z"/>
<path d="M3480 5158 c104 -472 260 -915 422 -1198 126 -220 215 -327 387 -469
56 -46 101 -87 101 -92 0 -23 -48 -31 -169 -27 -115 4 -134 8 -216 40 -164 65
-386 125 -570 154 -87 13 -154 16 -320 12 -455 -11 -625 23 -937 184 -160 83
-315 181 -507 321 -70 52 -133 97 -140 101 -41 26 136 -222 308 -431 332 -400
649 -634 1051 -771 254 -87 486 -122 808 -123 276 0 399 18 917 136 251 57
386 69 655 61 l205 -6 -108 60 c-247 137 -496 334 -580 456 -26 38 -89 160
-141 271 -94 199 -182 356 -259 463 -201 274 -559 656 -791 844 -66 53 -123
96 -127 96 -4 0 1 -37 11 -82z"/>
<path d="M9170 2935 c-308 -27 -890 -100 -1130 -143 -55 -10 -451 39 -810 99
-203 34 -276 42 -425 46 -402 11 -841 -60 -1537 -248 -625 -169 -865 -226
-1123 -265 -132 -20 -332 -22 -435 -5 -182 30 -436 108 -635 195 -44 19 -81
33 -83 31 -8 -8 58 -92 109 -140 110 -104 227 -174 431 -261 282 -121 513
-182 853 -228 387 -52 867 -44 1185 19 204 41 420 137 785 351 432 253 627
325 1000 370 185 22 325 11 325 -26 0 -4 -48 -34 -107 -66 -172 -91 -606 -335
-745 -417 -183 -108 -644 -459 -852 -648 l-49 -45 93 -90 93 -91 61 70 c104
121 437 456 533 537 337 281 855 564 1203 657 185 50 314 20 666 -152 319
-155 681 -377 904 -555 176 -140 405 -374 532 -543 l36 -48 74 86 c40 48 74
90 76 94 3 9 -395 339 -630 523 -168 130 -340 257 -451 331 -89 59 -366 198
-507 254 -185 74 -174 66 -105 74 101 12 325 9 430 -5 55 -7 136 -26 180 -41
173 -59 445 -203 755 -400 300 -191 475 -255 774 -284 328 -32 1063 24 1511
115 470 95 811 268 909 461 9 18 16 34 16 37 0 3 -35 -10 -77 -28 -308 -131
-662 -196 -997 -181 -333 14 -644 85 -1464 334 -735 224 -962 261 -1372 226z"/>
</g>
</svg>
