<svg height="464pt" viewBox="0 0 464 464" width="464pt" xmlns="http://www.w3.org/2000/svg"><path d="m128 72v-40h64v40h32v-40c0-17.671875-14.328125-32-32-32h-64c-17.671875 0-32 14.328125-32 32v40zm0 0" fill="#d12136"/><path d="m32 64h256c17.671875 0 32 14.328125 32 32v160c0 8.835938-7.164062 16-16 16h-288c-8.835938 0-16-7.164062-16-16v-160c0-17.671875 14.328125-32 32-32zm0 0" fill="#d12136"/><path d="m144 144h32v32h32v32h-32v32h-32v-32h-32v-32h32zm0 0" fill="#dce1ea"/><path d="m320 112h-320v-16c0-17.671875 14.328125-32 32-32h256c17.671875 0 32 14.328125 32 32zm0 0" fill="#dce1ea"/><path d="m464 240c-46.101562 0-90.3125-18.3125-122.910156-50.910156l-5.089844-5.089844-5.089844 5.089844c-32.597656 32.597656-76.808594 50.910156-122.910156 50.910156v5.136719c0 90.71875 48.929688 174.386719 128 218.863281 79.070312-44.476562 128-128.144531 128-218.863281zm0 0" fill="#415887"/><path d="m264 305.945312c-.003906-18.75 15.195312-33.949218 33.945312-33.945312 9 0 17.632813 3.578125 24 9.945312l14.054688 14.054688 14.054688-14.054688c6.367187-6.367187 15-9.945312 24-9.945312 18.75-.003906 33.949218 15.195312 33.945312 33.945312 0 9-3.578125 17.632813-9.945312 24l-62.054688 62.054688-62.054688-62.054688c-6.367187-6.367187-9.945312-15-9.945312-24zm0 0" fill="#4db5ff"/></svg>