<?xml version="1.0" encoding="UTF-8" standalone="no"?>
<svg xmlns:dc="http://purl.org/dc/elements/1.1/" xmlns:cc="http://web.resource.org/cc/" xmlns:rdf="http://www.w3.org/1999/02/22-rdf-syntax-ns#" xmlns:svg="http://www.w3.org/2000/svg" xmlns="http://www.w3.org/2000/svg" xmlns:sodipodi="http://sodipodi.sourceforge.net/DTD/sodipodi-0.dtd" xmlns:inkscape="http://www.inkscape.org/namespaces/inkscape" width="560pt" height="560pt" viewBox="0 0 560 560" version="1.1" id="svg2" sodipodi:version="0.32" inkscape:version="0.45.1" sodipodi:docname="Suf_croix 1.svg" sodipodi:docbase="/home/jeoire/Desktop/ScoutWiki/images" inkscape:output_extension="org.inkscape.output.svg.inkscape">
  <metadata id="metadata51">
    <rdf:RDF>
      <cc:Work rdf:about="">
        <dc:format>image/svg+xml</dc:format>
        <dc:type rdf:resource="http://purl.org/dc/dcmitype/StillImage"/>
      </cc:Work>
    </rdf:RDF>
  </metadata>
  <sodipodi:namedview inkscape:window-height="717" inkscape:window-width="1184" inkscape:pageshadow="2" inkscape:pageopacity="0.0" guidetolerance="10.0" gridtolerance="10.0" objecttolerance="10.0" borderopacity="1.0" bordercolor="#666666" pagecolor="#ffffff" id="base" inkscape:zoom="0.75963471" inkscape:cx="350" inkscape:cy="280.70198" inkscape:window-x="0" inkscape:window-y="27" inkscape:current-layer="svg2"/>
  <defs id="defs4">
    <clipPath id="clip0">
      <rect width="560" height="560" id="rect7"/>
    </clipPath>
  </defs>
  <path id="path16" d="M 114.83455,17.391776 C 224.79044,17.303642 334.74747,17.373893 444.70396,17.356635 C 444.67337,39.239967 444.70406,61.123206 444.68817,83.00666 C 411.71612,83.305991 378.74165,82.964744 345.7701,83.125022 C 345.77112,127.02328 345.7719,170.92138 345.76958,214.8198 C 389.71628,214.81806 433.66298,214.82128 477.61009,214.81822 C 477.586,181.84368 477.59395,148.86941 477.60576,115.89509 C 499.32961,115.91 521.05379,115.90489 542.77867,115.89776 C 542.81918,225.84672 542.75462,335.79568 542.81101,445.74471 C 521.07195,445.75427 499.33359,445.72578 477.5956,445.75897 C 477.60678,412.75064 477.58002,379.74276 477.6093,346.73499 C 433.66168,346.75332 389.71448,346.73699 345.76727,346.74314 C 345.77006,390.71098 345.78012,434.67881 345.76173,478.64703 C 378.73952,478.64858 411.71736,478.65937 444.69568,478.64228 C 444.69841,500.37272 444.671,522.10357 444.70995,543.83503 C 334.75465,543.84464 224.79954,543.8567 114.84438,543.82881 C 114.85376,522.10612 114.85323,500.38418 114.84463,478.66253 C 147.85912,478.62678 180.87358,478.6721 213.88827,478.63978 C 213.81178,434.67428 213.85031,390.70847 213.86861,346.74319 C 169.87888,346.74917 125.8894,346.72884 81.899841,346.75332 C 82.197632,379.73849 81.982727,412.73167 82.071976,445.7225 C 60.141708,445.77352 38.211472,445.73107 16.281189,445.74417 C 16.330566,335.79517 16.275452,225.84629 16.308777,115.89738 C 38.174591,115.90156 60.040283,115.91694 81.906189,115.88999 C 82.247574,140.94636 82.052841,166.02113 81.969803,191.08187 C 82.118317,198.98174 82.161118,206.88857 81.928665,214.78831 C 125.909,214.8552 169.88965,214.80981 213.8703,214.81114 C 213.81709,170.90682 213.8754,127.00262 213.84078,83.098426 C 180.839,83.092231 147.83534,83.186012 114.84209,82.965141 C 114.85001,61.107246 114.86491,39.249534 114.83455,17.391776 z " style="fill: rgb(202, 12, 28); fill-rule: nonzero; stroke: none;"/>
  <path id="path40" d="M 233.0627,357.28804 C 238.49649,357.28928 243.93092,357.29221 249.3667,357.28368 C 247.87976,372.68492 245.41614,387.9621 242.81757,403.2083 C 240.52357,387.71893 237.64902,372.28224 233.0627,357.28804 z " style="fill: rgb(255, 255, 255); fill-rule: nonzero; stroke: none;"/>
  <path id="path44" d="M 259.37672,357.28636 C 265.85686,357.32753 272.33752,357.23662 278.81888,357.24791 C 279.9511,358.55991 279.4307,360.45122 279.63268,362.04373 C 279.56761,391.01402 279.6123,419.98599 279.6118,448.95688 C 279.59071,450.62958 279.39355,452.31056 279.07211,453.96442 C 278.95668,454.15106 278.72582,454.52435 278.61038,454.711 C 271.50098,444.30955 261.8786,435.81642 252.82582,427.10411 C 258.97958,404.41266 259.35118,380.64711 259.37672,357.28636 z " style="fill: rgb(255, 255, 255); fill-rule: nonzero; stroke: none;"/>
  <path id="path48" d="M 309.68176,357.33099 C 315.08156,357.34448 320.48257,357.34477 325.88498,357.33093 C 321.38722,372.23618 318.36447,387.54108 316.24731,402.95505 C 313.48724,387.83516 311.16345,372.63194 309.68176,357.33099 z " style="fill: rgb(25, 23, 25); fill-rule: nonzero; stroke: none;"/>
  <path id="path36" d="M 279.60744,333.62326 C 286.46341,333.58025 293.32033,333.61408 300.17825,333.5918 C 302.88348,333.59245 305.58994,333.59421 308.30022,333.59689 C 316.8726,333.60283 325.4456,333.60753 334.01964,333.59354 C 336.11835,333.58846 338.21877,333.59854 340.32492,333.606 C 340.30292,341.50539 340.31125,349.40556 340.31923,357.30692 C 335.50618,357.3027 330.69487,357.29153 325.88498,357.33093 C 320.48257,357.34477 315.08156,357.34448 309.68176,357.33099 C 306.32744,357.29869 302.97488,357.29639 299.6246,357.32129 C 293.15022,357.06006 286.53586,357.97629 280.16005,356.83862 C 278.867,349.246 279.95175,341.3396 279.60744,333.62326 z " style="fill: rgb(255, 255, 255); fill-rule: nonzero; stroke: none;"/>
  <path id="path32" d="M 336.33417,237.37415 C 344.87341,229.49919 356.30435,224.76387 367.95436,224.68578 C 388.28416,224.43971 407.97871,236.83292 417.11942,254.89804 C 422.82416,265.84326 424.08101,278.92281 420.81967,290.80551 C 417.43481,303.45198 409.63487,314.45856 400.3981,323.54427 C 389.53729,308.34338 378.6192,293.18417 367.739,277.99814 C 351.94682,293.27373 342.26357,313.53722 334.01964,333.59354 C 325.4456,333.60753 316.8726,333.60283 308.30022,333.59689 C 307.95235,313.32622 309.26396,292.76794 315.19545,273.27411 C 319.30553,259.91507 325.83861,246.86112 336.33417,237.37415 z " style="fill: rgb(25, 23, 25); fill-rule: nonzero; stroke: none;"/>
  <path id="path20" d="M 279.57758,82.768204 C 296.63571,102.9597 314.26446,122.67058 331.49892,142.71523 C 323.74841,163.43926 318.99698,185.1322 314.7749,206.80528 C 306.95593,248.65385 302.08148,291.06224 300.17825,333.5918 C 293.32033,333.61408 286.46341,333.58025 279.60744,333.62326 C 279.95175,341.3396 278.867,349.246 280.16005,356.83862 C 286.53586,357.97629 293.15022,357.06006 299.6246,357.32129 C 299.56778,380.67374 300.03664,404.40375 306.09592,427.10262 C 298.01434,434.67209 290.03534,442.40527 282.95479,450.93549 C 281.72678,452.1512 280.78508,453.96187 279.14262,454.59773 L 279.07211,453.96442 C 279.39355,452.31056 279.59071,450.62958 279.6118,448.95688 C 279.6123,419.98599 279.56761,391.01402 279.63268,362.04373 C 279.4307,360.45122 279.9511,358.55991 278.81888,357.24791 C 272.33752,357.23662 265.85686,357.32753 259.37672,357.28636 C 256.03803,357.26933 252.70197,357.28438 249.3667,357.28368 C 243.93092,357.29221 238.49649,357.28928 233.0627,357.28804 C 228.28114,357.28006 223.50085,357.27753 218.72141,357.27832 C 218.71341,349.3847 218.72517,341.49226 218.71182,333.60062 C 220.78597,333.59642 222.86472,333.59706 224.94363,333.60165 C 233.52892,333.60146 242.11459,333.60358 250.7011,333.60019 C 253.39792,333.59731 256.09647,333.59796 258.7973,333.60222 C 265.73596,333.59775 272.67523,333.61214 279.6156,333.59021 C 279.56839,249.9828 279.64441,166.37534 279.57758,82.768204 z " style="fill: rgb(25, 23, 25); fill-rule: nonzero; stroke: none;"/>
  <path id="path24" d="M 227.43938,142.70428 C 244.80882,122.7169 262.20874,102.75626 279.57758,82.768204 C 279.64441,166.37534 279.56839,249.9828 279.6156,333.59021 C 272.67523,333.61214 265.73596,333.59775 258.7973,333.60222 C 256.90839,291.85275 252.17641,250.22333 244.62372,209.11841 C 240.29694,186.66425 235.49774,164.15944 227.43938,142.70428 z " style="fill: rgb(255, 255, 255); fill-rule: nonzero; stroke: none;"/>
  <path id="path28" d="M 145.2236,249.15468 C 155.66895,233.71466 174.23079,223.72759 192.9885,224.7281 C 204.71036,225.27489 215.96777,230.59076 224.25211,238.82944 C 235.1761,249.49438 241.48331,263.93602 245.31776,278.50012 C 249.94171,296.45569 251.08481,315.121 250.7011,333.60019 C 242.11459,333.60358 233.52892,333.60146 224.94363,333.60165 C 216.69397,313.5652 207.03191,293.30656 191.25284,278.03998 C 180.38521,293.23416 169.47459,308.39751 158.59073,323.58037 C 148.19879,313.39369 139.58276,300.62853 137.10257,286.06065 C 134.80057,273.30975 137.87846,259.79552 145.2236,249.15468 z " style="fill: rgb(255, 255, 255); fill-rule: nonzero; stroke: none;"/>
  <path id="path10" d="M 0,0 L 560,0 L 560,560 L 0,560 L 0,0 z " style="fill: none; stroke: rgb(255, 255, 255); stroke-width: 0.1; stroke-linecap: butt; stroke-linejoin: miter; stroke-miterlimit: 10;"/>
</svg>