<?xml version="1.0" standalone="no"?>
<!DOCTYPE svg PUBLIC "-//W3C//DTD SVG 20010904//EN"
 "http://www.w3.org/TR/2001/REC-SVG-20010904/DTD/svg10.dtd">
<svg version="1.0" xmlns="http://www.w3.org/2000/svg"
 width="1620" height="500" viewBox="0 110 1620 500"
 preserveAspectRatio="xMidYMid meet">

<g transform="translate(0.000000,720.000000) scale(0.100000,-0.100000)"
fill="#000000" stroke="none">
<path d="M3055 5025 c-185 -30 -353 -92 -484 -180 -81 -53 -203 -180 -249
-257 -70 -119 -110 -297 -97 -433 18 -177 70 -297 180 -414 129 -137 321 -239
632 -336 465 -145 554 -182 642 -261 71 -64 95 -113 96 -194 0 -119 -68 -195
-219 -243 -62 -19 -93 -22 -236 -22 -131 0 -177 4 -225 19 -126 38 -199 95
-250 197 -21 41 -54 156 -55 192 0 4 -131 7 -292 7 l-291 0 6 -97 c3 -54 17
-141 31 -194 105 -415 433 -639 971 -665 551 -27 984 196 1134 584 38 101 51
174 51 296 0 134 -20 222 -75 333 -113 229 -346 380 -799 519 -496 152 -579
189 -643 285 -31 47 -36 131 -11 189 49 114 204 169 441 157 257 -13 384 -101
443 -304 3 -10 69 -13 289 -13 l285 0 0 44 c0 24 -6 77 -14 118 -68 343 -295
564 -676 655 -89 21 -135 25 -300 29 -139 2 -221 -1 -285 -11z"/>
<path d="M12646 5025 c-252 -41 -446 -129 -592 -268 -180 -171 -265 -397 -235
-630 22 -173 81 -295 198 -409 140 -137 321 -225 718 -347 369 -115 472 -159
551 -243 61 -63 78 -102 79 -178 0 -166 -137 -256 -405 -267 -358 -15 -527 97
-575 380 l-6 37 -291 0 -291 0 6 -97 c3 -54 17 -141 31 -194 90 -354 342 -569
757 -645 134 -25 447 -25 583 0 242 44 432 136 575 277 162 160 241 350 241
573 0 144 -19 230 -75 343 -109 222 -342 377 -760 508 -80 25 -211 66 -292 91
-311 97 -416 172 -416 298 0 72 17 116 61 159 75 73 205 104 395 94 246 -13
380 -97 432 -272 l12 -40 287 -3 286 -2 0 49 c0 102 -45 260 -104 365 -116
204 -308 336 -586 403 -89 21 -135 25 -300 29 -138 2 -221 -1 -284 -11z"/>
<path d="M4650 4063 c0 -1001 1 -1014 50 -1192 81 -289 303 -535 583 -645 277
-109 630 -111 914 -4 137 52 243 119 348 223 141 138 225 291 278 504 20 84
21 109 24 1069 l4 982 -291 0 -290 0 0 -910 c0 -1012 1 -997 -66 -1137 -82
-172 -228 -253 -459 -253 -263 0 -415 115 -482 364 -15 54 -17 165 -20 999
l-4 937 -294 0 -295 0 0 -937z"/>
<path d="M7260 3590 l0 -1410 290 0 290 0 0 475 0 475 173 0 173 0 283 -475
284 -475 334 0 c278 0 334 2 330 14 -4 11 -560 924 -604 993 -14 21 -12 23 64
61 193 98 329 236 416 422 53 114 73 184 87 310 19 163 -11 325 -90 485 -137
281 -387 464 -709 520 -67 12 -203 15 -702 15 l-619 0 0 -1410z m1272 855
c115 -49 191 -131 229 -247 28 -87 23 -213 -10 -301 -32 -81 -112 -166 -193
-203 l-63 -29 -327 -3 -328 -3 0 406 0 406 323 -3 c295 -3 326 -5 369 -23z"/>
<path d="M9258 4968 c11 -18 248 -402 526 -853 l506 -820 0 -557 0 -558 295 0
295 0 0 563 0 563 523 844 523 845 -330 3 c-182 1 -335 1 -341 -2 -6 -2 -157
-247 -335 -545 -179 -297 -327 -541 -330 -541 -3 0 -153 245 -334 545 l-329
545 -344 0 -345 0 20 -32z"/>
</g>
</svg>
