<svg height='300px' width='300px'  fill="#3BB300" xmlns="http://www.w3.org/2000/svg" data-name="Layer 1" viewBox="0 0 100 100" x="0px" y="0px"><title>Artboard 399</title><path d="M77.27,26.76A269.76,269.76,0,0,0,50.4,52c-3.22-2.89-6.46-5.75-9.83-8.49-.21-.18-.75,0-1.21.5s-.68,1-.49,1.21l.05.06q4.84,5.94,10,11.57a2.22,2.22,0,0,0,3.14.14l.15-.14A269.37,269.37,0,0,0,79.08,28.46h0c.17-.23,0-.77-.52-1.23s-1-.7-1.23-.52Z"></path><path d="M21.37,58.73a31.14,31.14,0,0,0,4.58,9,29.91,29.91,0,0,0,50.59-3.53,29.57,29.57,0,0,0,2.9-19A1.31,1.31,0,0,0,78,44a1.36,1.36,0,0,0-1,1.55l0,.2a27.07,27.07,0,0,1-3.8,16.86,26.49,26.49,0,0,1-13,10.85,26.19,26.19,0,0,1-16.7.65A25.72,25.72,0,0,1,30,64.52c-6.86-9.06-6.45-22.7.91-31.51a26.64,26.64,0,0,1,14.34-9,27,27,0,0,1,17.19,1.65h0a1.38,1.38,0,0,0,1.77-.46,1.31,1.31,0,0,0-.67-1.75l-.2-.11a29.35,29.35,0,0,0-19.06-2.88A29.81,29.81,0,0,0,20.09,48.71,31.51,31.51,0,0,0,21.37,58.73Z"></path></svg>