<svg height='300px' width='300px'  fill="#1A1A1A" xmlns="http://www.w3.org/2000/svg" xmlns:xlink="http://www.w3.org/1999/xlink" xml:space="preserve" version="1.1" style="shape-rendering:geometricPrecision;text-rendering:geometricPrecision;image-rendering:optimizeQuality;" viewBox="0 0 7773 10767" x="0px" y="0px" fill-rule="evenodd" clip-rule="evenodd"><defs><style type="text/css">
   
    .fil0 {fill:#1A1A1A;fill-rule:nonzero}
   
  </style></defs><g><path class="fil0" d="M6817 9604c590,66 956,565 956,1163l-6889 0c0,-598 367,-1097 957,-1163 -388,-328 -300,-1084 267,-1216 -155,-175 -149,-474 19,-639 -1179,-259 82,-1771 474,-2287 285,-376 538,-710 589,-861 30,-89 -9,-62 -81,-43 -529,136 -723,173 -1275,168 -41,-1 -47,7 -83,50 -135,162 -267,361 -414,515 -197,206 -270,138 -368,47 -82,-76 -109,-80 -218,-71 -612,-15 -976,-935 -596,-1299 476,-455 854,-1082 1314,-1572 295,-315 749,-441 959,-805 363,-630 96,-669 14,-1237 -25,-179 75,-249 239,-172 277,129 441,333 663,503 140,107 116,118 152,-26 37,-148 46,-314 69,-461 32,-195 134,-266 297,-122 212,187 363,566 473,842 62,155 109,273 117,276 4037,1284 866,4493 2326,5717 420,352 149,667 -270,815 192,160 203,478 41,662 567,131 657,888 268,1216z"></path></g></svg>