<?xml version="1.0" encoding="UTF-8" standalone="no"?>
<!-- Created with Inkscape (http://www.inkscape.org/) -->

<svg
   xmlns:dc="http://purl.org/dc/elements/1.1/"
   xmlns:cc="http://creativecommons.org/ns#"
   xmlns:rdf="http://www.w3.org/1999/02/22-rdf-syntax-ns#"
   xmlns:svg="http://www.w3.org/2000/svg"
   xmlns="http://www.w3.org/2000/svg"
   xmlns:sodipodi="http://sodipodi.sourceforge.net/DTD/sodipodi-0.dtd"
   xmlns:inkscape="http://www.inkscape.org/namespaces/inkscape"
   width="1836"
   height="1224"
   id="svg2776"
   sodipodi:version="0.32"
   inkscape:version="0.92.1 r15371"
   version="1.0"
   sodipodi:docname="McGill.svg"
   inkscape:output_extension="org.inkscape.output.svg.inkscape">
  <defs
     id="defs2778">
    <clipPath
       clipPathUnits="userSpaceOnUse"
       id="clipPath95">
      <path
         d="m 250.10001,619.01001 h 343.88 V 532.8 h -343.88 z"
         id="path97"
         inkscape:connector-curvature="0"
         style="clip-rule:evenodd" />
    </clipPath>
    <inkscape:perspective
       sodipodi:type="inkscape:persp3d"
       inkscape:vp_x="0 : 526.18109 : 1"
       inkscape:vp_y="0 : 1000 : 0"
       inkscape:vp_z="744.09448 : 526.18109 : 1"
       inkscape:persp3d-origin="372.04724 : 350.78739 : 1"
       id="perspective2784" />
  </defs>
  <sodipodi:namedview
     id="base"
     pagecolor="#ffffff"
     bordercolor="#666666"
     borderopacity="1.0"
     inkscape:pageopacity="0.0"
     inkscape:pageshadow="2"
     inkscape:zoom="0.28580234"
     inkscape:cx="-492.89939"
     inkscape:cy="294.46879"
     inkscape:document-units="px"
     inkscape:current-layer="layer1"
     showgrid="false"
     inkscape:window-width="1920"
     inkscape:window-height="1016"
     inkscape:window-x="0"
     inkscape:window-y="27"
     inkscape:window-maximized="1" />
  <metadata
     id="metadata2781">
    <rdf:RDF>
      <cc:Work
         rdf:about="">
        <dc:format>image/svg+xml</dc:format>
        <dc:type
           rdf:resource="http://purl.org/dc/dcmitype/StillImage" />
        <dc:title></dc:title>
      </cc:Work>
    </rdf:RDF>
  </metadata>
  <g
     inkscape:label="Calque 1"
     inkscape:groupmode="layer"
     id="layer1"
     transform="translate(-174.2054,777.49537)">
    <g
       id="g3929"
       transform="matrix(2.793615,0,0,3.0267692,38.613461,-1370.381)">
      <g
         id="g91"
         transform="matrix(1.25,0,0,-1.25,-139.03384,1123.5959)">
        <g
           clip-path="url(#clipPath95)"
           id="g93">
          <path
             inkscape:connector-curvature="0"
             id="path99"
             style="fill:#ef2c30;fill-opacity:1;fill-rule:evenodd;stroke:none"
             d="m 252.19402,583.47504 c -2.739,9.75702 -1.13701,18.78497 -1.13701,29.703 9.763,4.854 19.42999,5.29498 29.90701,5.29498 9.05899,0 21.90598,-1.16998 29.64301,-5.27899 0.79296,-10.29303 1.24899,-19.35303 -1.39402,-31.04797 -2.643,-11.69501 -10.332,-27.85205 -27.86499,-39.78803 -19.134,12.54401 -25.39001,27.70801 -29.154,41.11701" />
        </g>
      </g>
      <path
         inkscape:connector-curvature="0"
         id="path101"
         style="fill:#ffffff;fill-opacity:1;fill-rule:evenodd;stroke:none"
         d="m 187.62994,376.38205 -11.785,12.81754 c 2.64373,12.285 9.98248,38.03878 36.71375,55.41122 26.49123,-18.23371 33.59001,-43.22624 35.19122,-55.69244 l -11.45374,-12.5663 -12.68497,12.85752 -11.68378,-12.7475 -11.64375,12.58751 -12.65373,-12.66755" />
      <path
         inkscape:connector-curvature="0"
         id="path103"
         style="fill:#ffffff;fill-opacity:1;fill-rule:evenodd;stroke:none"
         d="m 243.10365,363.3821 c -0.11998,0 -0.41996,-0.12001 0,-0.24003 0.24002,0 0.84004,0 1.50001,0.84 0.29999,-0.12001 0.96001,-1.19995 1.68004,-0.84 0,0.06 -2.34001,5.22125 -2.58004,5.64133 -1.01997,-0.54008 -7.01999,-0.90004 -6.42124,-0.90004 0.48127,0 -5.45997,0.17998 -6.35997,0.90004 -0.30003,-0.54008 -2.64,-5.76134 -2.64,-5.76134 0.71999,-0.29999 1.49997,0.71999 1.74,0.84 0.59997,-0.84 1.19999,-0.84 1.32,-0.84 0.59997,0.12001 0.23997,0.24003 0.17997,0.36004 -2.87998,2.34001 1.32,4.98122 2.22,2.34001 3.72002,0.42 2.7,-2.58004 1.8,-3.00004 -0.71998,-0.17997 -0.23998,-0.29998 0,-0.29998 0.29999,-0.17998 0.77999,-0.17998 0.77999,0.12001 0,-1.62124 0.12001,-2.70126 0.96001,-3.18123 0.90127,0.59998 1.02124,1.55999 0.90127,3.18123 0.11997,-0.29999 0.54,-0.12001 0.9,-0.12001 0.11997,0.12001 0.71998,0.12001 0.11997,0.36003 -1.01997,0.35995 -1.92124,3.53997 1.74004,2.93999 0.83999,2.64121 5.27999,-0.29999 2.15995,-2.34001 z m -2.45999,3.11996 1.08003,1.26129 -2.09999,-0.29999 z m -3.36124,-1.43997 1.32123,2.40127 h -2.58123 z m -3.29998,1.43997 -1.08002,1.26129 2.09999,-0.29999 -1.01997,-0.9613" />
      <path
         inkscape:connector-curvature="0"
         id="path105"
         style="fill:#ffffff;fill-opacity:1;fill-rule:evenodd;stroke:none"
         d="m 232.48994,371.7108 c -0.41999,-0.71999 -0.9,-1.97998 -1.14128,-2.27996 1.02128,-0.78003 4.80125,-0.89997 6.18126,-0.89997 2.04003,0 4.86122,0.29999 5.76123,0.89997 0,0 -0.41996,1.50001 -0.77996,2.39997 -1.62124,-0.59997 -3.78124,-0.84 -5.22125,-0.84 -1.62003,0 -3.54,0.24003 -4.8,0.71999 z m 9.41997,-2.03994 c 0.36,0 0.72003,0.35995 0.72003,0.66001 0,0.35995 -0.36003,0.71999 -0.72003,0.71999 -0.29872,0 -0.65997,-0.36004 -0.65997,-0.71999 0,-0.30006 0.36125,-0.66001 0.65997,-0.66001 z m -2.22,-0.48005 c 0.36004,0 0.72003,0.36004 0.72003,0.66003 0,0.36002 -0.35999,0.72006 -0.72003,0.72006 -0.29999,0 -0.65997,-0.36004 -0.65997,-0.72006 0,-0.29999 0.35998,-0.66003 0.65997,-0.66003 z m -2.33996,-0.17997 c 0.35999,0 0.71997,0.36003 0.71997,0.66002 0,0.35995 -0.35998,0.71998 -0.71997,0.71998 -0.30004,0 -0.66003,-0.36003 -0.66003,-0.71998 0,-0.29999 0.35999,-0.66002 0.66003,-0.66002 z m -2.34001,0.17997 c 0.35998,0 0.71997,0.36004 0.71997,0.66003 0,0.36002 -0.35999,0.72006 -0.71997,0.72006 -0.29999,0 -0.66003,-0.36004 -0.66003,-0.72006 0,-0.29999 0.36004,-0.66003 0.66003,-0.66003 z m -2.16,0.48005 c 0.35998,0 0.71998,0.35995 0.71998,0.66001 0,0.35995 -0.36,0.71999 -0.71998,0.71999 -0.29999,0 -0.66003,-0.36004 -0.66003,-0.71999 0,-0.30006 0.36004,-0.66001 0.66003,-0.66001" />
      <path
         inkscape:connector-curvature="0"
         id="path107"
         style="fill:#ffffff;fill-opacity:1;fill-rule:evenodd;stroke:none"
         d="m 237.27865,371.4733 c 2.64004,0 5.08629,0.48881 5.08629,0.78255 0,0.29372 -2.15253,0.48874 -4.89125,0.48874 -2.64,0 -4.89002,-0.19502 -4.89002,-0.48874 0,-0.29374 2.05375,-0.78255 4.69498,-0.78255" />
      <path
         inkscape:connector-curvature="0"
         id="path109"
         style="fill:#ffffff;fill-opacity:1;fill-rule:evenodd;stroke:none"
         d="m 203.74994,355.70586 c 0,0 1.79875,0.74996 3.29876,0.14999 1.79996,-0.75004 3.49999,-1.20003 4.79999,-0.60005 v 15.35126 c -1.1,-0.39994 -2.55,-0.24994 -4.20002,0.14999 -1.65001,0.40001 -2.59876,0.45006 -3.89873,0.20005 z m 5.04875,11.35124 c 0,-0.55 0.35,-0.7 0.59997,-0.7 0.20001,0 0.55,0.15 0.55,0.7 0,0.59997 -0.34999,0.74997 -0.55,0.74997 -0.24997,0 -0.59997,-0.15 -0.59997,-0.74997 z m -0.40002,0 c 0,0.99999 0.7,1.10001 0.99999,1.10001 0.25001,0 0.95001,-0.10002 0.95001,-1.10001 0,-0.95001 -0.7,-1.05003 -0.95001,-1.05003 -0.29999,0 -0.99999,0.10002 -0.99999,1.05003 z m -0.84998,0.49996 v 0 l -0.80002,-1.44997 h -0.5 v 2.09998 h 0.44999 v -1.50001 l 0.80001,1.50001 h 0.44999 v -2.09998 h -0.39997 z m -2.14874,0.80001 h 0.40001 v -2.05 h -0.40001 z m 5.29872,-6.8 h -0.64998 l -0.35,1.60004 -0.35,-1.60004 h -0.65003 v 2.0488 h 0.40001 v -1.70006 l 0.40002,1.70006 h 0.40001 l 0.39996,-1.70006 v 1.70006 h 0.40001 z m -3.84998,1.19873 c 0,-0.54993 0.29998,-0.6987 0.55001,-0.6987 0.19996,0 0.54996,0.14877 0.54996,0.6987 0,0.60127 -0.35,0.75127 -0.54996,0.75127 -0.25003,0 -0.55001,-0.15 -0.55001,-0.75127 z m -0.45002,0 c 0,1.00129 0.7,1.1013 1.00003,1.1013 0.24997,0 0.99997,-0.10001 0.99997,-1.1013 0,-0.94994 -0.75,-1.04995 -0.99997,-1.04995 -0.30003,0 -1.00003,0.10001 -1.00003,1.04995 z m -1.54872,-0.44869 h 0.39875 c 0.19996,0 0.49999,0.05 0.49999,0.64995 0,0.34874 -0.14878,0.7 -0.49999,0.7 h -0.39875 z m -0.45003,1.69999 h 0.9 c 0.69874,0 0.84999,-0.65003 0.84999,-1.05004 0,-0.4 -0.15125,-0.99999 -0.80124,-0.99999 h -0.94875 z m 3.89878,-4.95125 v 0 l -0.80003,-1.39999 h -0.44997 v 1.99996 h 0.39996 v -1.39998 l 0.80003,1.39998 h 0.44997 v -1.99996 h -0.39996 z m -2.24876,0.65125 h 0.40001 v -2.00001 h -0.40001 z" />
      <path
         inkscape:connector-curvature="0"
         id="path111"
         style="fill:#ffffff;fill-opacity:1;fill-rule:evenodd;stroke:none"
         d="m 203.22119,355.71837 -1.45002,1.14998 v 15.40122 l 1.45002,-1.35001 v -15.20119" />
      <path
         inkscape:connector-curvature="0"
         id="path113"
         style="fill:#ffffff;fill-opacity:1;fill-rule:evenodd;stroke:none"
         d="m 202.22116,372.5196 1.45,-1.14999 c 1.05004,0.29999 3.30003,-0.14999 4.34876,-0.30006 1.74999,-0.24994 2.5,-0.59998 3.75,0 -0.7,0.30006 -1.14998,0.90004 -1.14998,1.45005 h -8.39878" />
      <path
         inkscape:connector-curvature="0"
         id="path115"
         style="fill:#ffffff;fill-opacity:1;fill-rule:evenodd;stroke:none"
         d="m 221.76992,372.5196 -1.4,-1.14999 c -1.19998,0.29999 -3.25001,-0.14999 -4.35001,-0.30006 -1.89999,-0.24994 -2.5,-0.59998 -3.59997,0 0.55001,0.30006 0.94997,0.90004 0.85,1.45005 h 8.49998" />
      <path
         inkscape:connector-curvature="0"
         id="path117"
         style="fill:#ffffff;fill-opacity:1;fill-rule:evenodd;stroke:none"
         d="m 220.76994,355.5683 1.34997,1.30005 v 15.25124 l -1.34997,-1.29998 V 355.5683" />
      <path
         inkscape:connector-curvature="0"
         id="path119"
         style="fill:#ffffff;fill-opacity:1;fill-rule:evenodd;stroke:none"
         d="m 220.24244,355.70586 c 0,0 -1.8,0.74996 -3.30002,0.14999 -1.89998,-0.75004 -3.44997,-1.20003 -4.54998,-0.60005 v 15.35126 c 0.94997,-0.39994 2.19997,-0.24994 3.9,0.14999 1.69997,0.40001 2.59997,0.45006 3.95,0.20005 z m -6.20003,12.4012 h 0.9 c 0.70004,0 0.85003,-0.64995 0.85003,-1.10001 0,-0.39993 -0.14999,-0.94994 -0.85003,-0.94994 h -0.9 z m 0.45001,-1.69999 h 0.40002 c 0.20001,0 0.44998,0.05 0.44998,0.65003 0,0.34996 -0.1,0.7 -0.44998,0.7 h -0.40002 z m 1.85003,0.95002 c 0,0.99998 0.69999,1.10001 0.99997,1.10001 0.25003,0 0.99999,-0.10003 0.99999,-1.10001 0,-0.95002 -0.74996,-1.05003 -0.99999,-1.05003 -0.29998,0 -0.99997,0.10001 -0.99997,1.05003 z m 0.44997,0 c 0,-0.55 0.29999,-0.7 0.55,-0.7 0.20002,0 0.55002,0.15 0.55002,0.7 0,0.59997 -0.35,0.74997 -0.55002,0.74997 -0.25001,0 -0.55,-0.15 -0.55,-0.74997 z m -1.6,-4.15002 h 0.9 v -0.4 h -0.9 v -0.44998 h 1.05 v -0.35125 h -1.49997 v 2.05123 h 0.44997 z m 1.54999,0.90005 h 0.45 v -2.05 h -0.45 z m -1.89999,-5.75127 c -0.05,-0.29999 -0.29998,-0.69999 -0.9,-0.69999 -0.55,0 -0.95001,0.35125 -0.95001,1.04995 0,0.75005 0.40001,1.1013 0.95001,1.1013 0.5,0 0.80003,-0.30006 0.9,-0.75126 h -0.44997 c -0.05,0.25001 -0.20001,0.40001 -0.45003,0.40001 -0.40001,0 -0.49998,-0.35004 -0.49998,-0.75005 0,-0.55 0.29998,-0.6987 0.49998,-0.6987 0.35,0 0.40002,0.24873 0.45003,0.34874 z m 0.35,0.6012 c 0,0.99876 0.7,1.10001 0.99999,1.10001 0.25001,0 1.00003,-0.10125 1.00003,-1.10001 0,-0.94994 -0.75002,-1.04996 -1.00003,-1.04996 -0.29999,0 -0.99999,0.10002 -0.99999,1.04996 z m 0.45003,0 c 0,-0.54993 0.29999,-0.70121 0.54996,-0.70121 0.2,0 0.55,0.15128 0.55,0.70121 0,0.59875 -0.35,0.75005 -0.55,0.75005 -0.24997,0 -0.54996,-0.1513 -0.54996,-0.75005 z m 3.09997,0.45006 v 0 l -0.79998,-1.45126 h -0.45002 v 2.05001 h 0.40002 v -1.45004 l 0.84998,1.45004 h 0.45002 v -2.05001 h -0.45002 v 1.45126" />
      <path
         inkscape:connector-curvature="0"
         id="path121"
         style="fill:#ffffff;fill-opacity:1;fill-rule:evenodd;stroke:none"
         d="m 212.06995,371.36961 c -0.55001,0.59998 -0.85004,0.59998 -0.7,1.14999 h 1.25 c 0.14999,-0.55001 0,-0.85 -0.55,-1.14999" />
      <path
         inkscape:connector-curvature="0"
         id="path123"
         style="fill:#ef2c30;fill-opacity:1;fill-rule:evenodd;stroke:none"
         d="m 186.03116,399.88211 c 0.17876,-0.41877 0.58125,-1.61499 0.8075,-2.03499 -0.22625,-0.38627 -0.62874,-0.79002 -0.96875,-0.79002 0.16125,-0.38879 0.84,-0.905 0.7425,-1.24374 -0.19249,-0.34005 -0.45124,-0.2913 -1.14624,-0.67879 0.22625,-0.46875 0.74375,-0.75875 1.08249,-0.8075 0.40375,-0.0799 0.40375,-0.62996 1.0175,-0.9687 0.71003,-0.33875 1.43628,-0.33875 2.24376,-0.42 1.09875,0.12872 4.05377,0.92003 3.26249,4.52248 1.77628,3.60122 8.04126,-1.19629 10.2375,-1.19629 -0.42,0.79254 -0.96874,1.58256 -1.38874,2.39128 0.58247,0.41878 1.38874,0 2.01874,0 -0.63,2.00256 -1.83999,2.79373 -2.82624,3.60123 0.98625,3.2138 4.70002,1.95373 8.00999,1.61499 -0.3875,1.08131 -1.74374,1.17881 -2.37374,1.98631 1.13,1.22749 2.37374,2.80998 3.18128,4.40873 -1.48629,-0.96879 -4.57001,-2.00249 -5.60375,-2.38999 -1.98628,-0.79125 -6.05504,-0.79125 -8.04128,0 0.3875,0.79124 1.17875,1.19499 1.82378,1.58249 -1.03253,2.01874 -3.05126,0.8075 -4.24626,0.42 -1.01753,0.80749 -2.90627,0.85625 -3.42377,0.3875 0,0 0,-0.51629 0.63,-0.905 0.3875,-0.58129 -1.21125,-0.69375 -1.6475,-1.48499 0,-0.7425 0.79125,0 1.2275,-0.79125 -1.0175,-2.03499 -5.18375,-2.42256 -4.61876,-7.20375 z m 2.87503,-5.7325 c 0.22625,0 0.3875,0.17746 0.3875,0.3875 0,0.22621 -0.16125,0.40375 -0.3875,0.40375 -0.2425,0 -0.42,-0.17754 -0.42,-0.40375 0,-0.21004 0.1775,-0.3875 0.42,-0.3875" />
      <path
         inkscape:connector-curvature="0"
         id="path125"
         style="fill:#ef2c30;fill-opacity:1;fill-rule:evenodd;stroke:none"
         d="m 214.52741,400.45462 c 0.17754,-0.3875 0.56504,-1.59881 0.80754,-1.98631 -0.2425,-0.42 -0.63,-0.8075 -0.97001,-0.8075 0.16247,-0.42 0.84,-0.92125 0.72751,-1.27624 -0.1775,-0.33867 -0.43625,-0.29121 -1.14629,-0.67871 0.24129,-0.45127 0.75879,-0.7425 1.09753,-0.79125 0.42,-0.0487 0.42,-0.64629 1.0175,-0.98502 0.70998,-0.33875 1.43623,-0.33875 2.24372,-0.3875 1.09875,0.0963 4.07001,0.90377 3.26253,4.50622 1.77623,3.6013 8.05873,-1.19499 10.2375,-1.19499 -0.40375,0.80749 -0.96874,1.61499 -1.38878,2.40623 0.59875,0.3875 1.38878,0 2.01878,0 -0.63,2.00257 -1.84003,2.81006 -2.80877,3.60131 0.96874,3.19755 4.6825,1.95374 7.99252,1.61499 -0.3875,1.06621 -1.74378,1.19506 -2.37378,1.98624 1.14625,1.19498 2.37378,2.80997 3.18128,4.4088 -1.48503,-0.96879 -4.57002,-2.01882 -5.5875,-2.40632 -2.00249,-0.8075 -6.07125,-0.8075 -8.05753,0 0.3875,0.80749 1.19504,1.19499 1.82503,1.59874 -1.03374,2.00256 -3.05252,0.80758 -4.23127,0.40375 -1.03373,0.79131 -2.92251,0.8725 -3.44001,0.40383 0,0 0,-0.50004 0.63004,-0.92004 0.3875,-0.56625 -1.21129,-0.67879 -1.64628,-1.48628 0,-0.75875 0.78999,0 1.24249,-0.8075 -1.03252,-1.98616 -5.215,-2.40623 -4.63375,-7.20245 z m 2.80876,-5.71755 c 0.2425,0 0.40375,0.17754 0.40375,0.42 0,0.21004 -0.16125,0.3875 -0.40375,0.3875 -0.22498,0 -0.40375,-0.17746 -0.40375,-0.3875 0,-0.24246 0.17877,-0.42 0.40375,-0.42" />
      <path
         inkscape:connector-curvature="0"
         id="path127"
         style="fill:#ef2c30;fill-opacity:1;fill-rule:evenodd;stroke:none"
         d="m 200.89116,420.54206 c 0.16125,-0.3875 0.565,-1.59875 0.8075,-1.98624 -0.2425,-0.3875 -0.64625,-0.8075 -0.985,-0.8075 0.1775,-0.3875 0.85625,-0.92125 0.7425,-1.26 -0.17624,-0.33873 -0.46749,-0.27496 -1.14624,-0.6787 0.2425,-0.46753 0.74249,-0.7425 1.09874,-0.8075 0.3875,-0.0487 0.3875,-0.63003 1.0175,-0.9687 0.67749,-0.35507 1.43628,-0.35507 2.22748,-0.40382 1.08253,0.12877 4.07005,0.905 3.26252,4.53872 1.77628,3.6013 8.05751,-1.2275 10.22125,-1.2275 -0.3875,0.8075 -0.96874,1.615 -1.35624,2.42249 0.56499,0.3875 1.35624,0 2.00253,0 -0.64629,1.98631 -1.82503,2.79381 -2.81003,3.60131 0.985,3.21373 4.70002,1.93748 8.00999,1.59874 -0.3875,1.0662 -1.77624,1.19506 -2.40624,2.00249 1.14625,1.19499 2.40624,2.79372 3.21374,4.39254 -1.48625,-0.96878 -4.58622,-1.98632 -5.60371,-2.4063 -2.01878,-0.79125 -6.05504,-0.79125 -8.07378,0 0.40375,0.80748 1.21125,1.22748 1.84124,1.61498 -1.03374,1.98624 -3.03622,0.79132 -4.23122,0.3875 -1.04999,0.80749 -2.92252,0.87249 -3.42377,0.40382 0,0 0,-0.50003 0.5975,-0.92003 0.42,-0.54877 -1.195,-0.67879 -1.6475,-1.48627 0,-0.72625 0.8075,0 1.26,-0.79125 -1.0175,-2.00242 -5.2,-2.38999 -4.61876,-7.21878 z m 2.84253,-5.71747 c 0.1775,0 0.33875,0.17753 0.33875,0.42 0,0.16128 -0.16125,0.34003 -0.33875,0.34003 -0.21,0 -0.3875,-0.17875 -0.3875,-0.34003 0,-0.24247 0.1775,-0.42 0.3875,-0.42" />
      <path
         inkscape:connector-curvature="0"
         id="path129"
         style="fill:#ffffff;fill-opacity:1;fill-rule:evenodd;stroke:none"
         d="m 193.05364,363.3821 c -0.11997,0 -0.41997,-0.12001 0,-0.24003 0.24002,0 0.84003,0 1.50002,0.84 0.29999,-0.12001 0.96,-1.19995 1.68003,-0.84 0,0.06 -2.34002,5.22125 -2.58004,5.64133 -1.01998,-0.54008 -7.02121,-0.90004 -6.42124,-0.90004 0.48,0 -5.45997,0.17998 -6.35997,0.90004 -0.30002,-0.54008 -2.64,-5.76134 -2.64,-5.76134 0.71998,-0.29999 1.5,0.71999 1.74,0.84 0.59998,-0.84 1.19998,-0.84 1.32,-0.84 0.59997,0.12001 0.23997,0.24003 0.17997,0.36004 -2.87999,2.34001 1.32,4.98122 2.22,2.34001 3.72001,0.42 2.7,-2.58004 1.8,-3.00004 -0.71999,-0.17997 -0.23997,-0.29998 0,-0.29998 0.30003,-0.17998 0.78004,-0.17998 0.78004,0.12001 0,-1.62124 0.11996,-2.70126 0.95996,-3.18123 0.9,0.59998 1.02001,1.55999 0.9,3.18123 0.12001,-0.29999 0.54128,-0.12001 0.90126,-0.12001 0.11875,0.12001 0.71999,0.12001 0.11875,0.36003 -1.02001,0.35995 -1.92001,3.53997 1.74127,2.93999 0.83998,2.64121 5.28,-0.29999 2.15995,-2.34001 z m -2.45994,3.11996 1.07997,1.26129 -2.09998,-0.29999 z m -3.36129,-1.43997 1.32,2.40127 h -2.58 z m -3.29997,1.43997 -1.08003,1.26129 2.10004,-0.29999 -1.02001,-0.9613" />
      <path
         inkscape:connector-curvature="0"
         id="path131"
         style="fill:#ffffff;fill-opacity:1;fill-rule:evenodd;stroke:none"
         d="m 182.43867,371.7108 c -0.42,-0.71999 -0.9,-1.97998 -1.13998,-2.27996 1.02123,-0.78003 4.80126,-0.89997 6.18122,-0.89997 2.04003,0 4.86,0.29999 5.76,0.89997 0,0 -0.42,1.50001 -0.77999,2.39997 -1.61998,-0.59997 -3.77998,-0.84 -5.22,-0.84 -1.61998,0 -3.54126,0.24003 -4.80125,0.71999 z m 9.42128,-2.03994 c 0.35999,0 0.71999,0.35995 0.71999,0.66001 0,0.35995 -0.36,0.71999 -0.71999,0.71999 -0.30003,0 -0.66003,-0.36004 -0.66003,-0.71999 0,-0.30006 0.36,-0.66001 0.66003,-0.66001 z m -2.22,-0.48005 c 0.35999,0 0.71997,0.36004 0.71997,0.66003 0,0.36002 -0.35998,0.72006 -0.71997,0.72006 -0.30003,0 -0.66003,-0.36004 -0.66003,-0.72006 0,-0.29999 0.36,-0.66003 0.66003,-0.66003 z m -2.34001,-0.17997 c 0.35998,0 0.71998,0.36003 0.71998,0.66002 0,0.35995 -0.36,0.71998 -0.71998,0.71998 -0.29999,0 -0.66003,-0.36003 -0.66003,-0.71998 0,-0.29999 0.36004,-0.66002 0.66003,-0.66002 z m -2.34002,0.17997 c 0.35999,0 0.72003,0.36004 0.72003,0.66003 0,0.36002 -0.36004,0.72006 -0.72003,0.72006 -0.29998,0 -0.65998,-0.36004 -0.65998,-0.72006 0,-0.29999 0.36,-0.66003 0.65998,-0.66003 z m -2.16126,0.48005 c 0.36,0 0.72125,0.35995 0.72125,0.66001 0,0.35995 -0.36125,0.71999 -0.72125,0.71999 -0.29872,0 -0.65871,-0.36004 -0.65871,-0.71999 0,-0.30006 0.35999,-0.66001 0.65871,-0.66001" />
      <path
         inkscape:connector-curvature="0"
         id="path133"
         style="fill:#ffffff;fill-opacity:1;fill-rule:evenodd;stroke:none"
         d="m 187.22864,371.4733 c 2.64003,0 5.08628,0.48881 5.08628,0.78255 0,0.29372 -2.15247,0.48874 -4.89123,0.48874 -2.64127,0 -4.89003,-0.19502 -4.89003,-0.48874 0,-0.29374 2.05375,-0.78255 4.69498,-0.78255" />
      <path
         inkscape:connector-curvature="0"
         id="path135"
         style="fill:#ef2c30;fill-opacity:1;fill-rule:evenodd;stroke:none"
         d="m 505.40746,359.42961 c 3.15873,0 5.80871,2.59873 5.80871,5.80871 0,3.21 -2.64998,5.85999 -5.80871,5.85999 -3.1588,0 -5.75752,-2.64999 -5.75752,-5.85999 0,-3.20998 2.59872,-5.80871 5.75752,-5.80871 z m 55.07621,61.65498 c -0.25505,2.54752 -1.42623,4.22873 -6.2162,5.55373 -3.77006,1.22254 -3.31131,3.20999 0.50995,3.3638 10.29129,-1.47751 13.50122,-1.22375 22.72255,-0.20377 3.6187,-0.0513 3.00622,-2.39503 0.765,-3.46498 -5.4013,-2.09007 -6.26755,-2.14126 -7.33635,-7.4913 l -0.4087,-54.01122 c 0,-3.10875 1.17255,-6.72624 -2.13875,-5.91126 -6.16501,2.44621 -6.67496,2.65 -12.27875,4.58626 -2.95493,1.27372 -1.83495,2.69996 0.30503,3.41377 3.00629,1.22245 3.26126,3.05748 3.41377,5.24872 z m -31.68998,-0.30625 c -0.25498,2.54875 -1.42753,4.23003 -6.21628,5.55503 -3.76999,1.22247 -3.31245,3.21 0.51003,3.3625 10.29121,-1.4775 13.50128,-1.22252 22.72247,-0.20377 3.61755,-0.0513 3.00621,-2.39503 0.765,-3.46504 -5.40122,-2.0887 -6.26747,-2.13997 -7.3375,-7.48994 l -0.40747,-54.01252 c 0,-3.10875 1.17247,-6.72623 -2.13998,-5.91004 -6.16501,2.445 -6.67381,2.64878 -12.27875,4.58504 -2.95501,1.27374 -1.8338,2.70126 0.30625,3.41377 3.00621,1.22368 3.25996,3.05749 3.41378,5.24873 z m -28.88874,-21.24748 c -0.25501,-2.75124 -0.61126,-4.89129 -3.77003,-5.8088 -2.24247,-0.2037 -3.31123,-2.2425 -0.1025,-3.46496 6.42003,-2.08878 7.33753,-2.44629 12.27879,-6.41999 1.5287,-0.81619 3.31245,-0.15372 2.44621,2.59873 -0.35622,2.08877 -0.30625,3.05626 -0.45876,5.29877 l 0.0513,28.12751 c 0.25497,4.58497 3.82126,5.34997 6.11373,6.26748 2.29248,0.91629 2.49627,3.61747 -0.2037,3.66875 -9.98627,-1.37628 -12.17751,-1.52879 -21.80633,0.40747 -3.20995,0.0513 -3.92369,-2.39501 0.0513,-3.82125 3.9737,-1.42746 5.2987,-2.09 5.50251,-5.5037 z m -88.39626,-5.19745 c 2.24125,-24.00002 17.62748,-34.03755 39.28123,-35.82131 22.82502,0.15251 26.08628,1.68121 25.78003,14.42001 0.15374,4.58626 -2.90379,5.65621 -5.04375,0.45876 -2.445,-4.6875 -4.48376,-7.38876 -10.29125,-9.78378 -19.66625,-4.43253 -34.23753,8.20373 -35.10503,29.70748 -1.37496,30.31754 32.55753,39.18374 39.58753,27.87255 1.47872,-2.95631 1.47872,-10.80253 1.27369,-17.27378 -1.22247,-4.28124 -5.29744,-3.87254 -9.27247,-4.02627 -4.27997,0.30624 -5.8075,-4.53498 -0.05,-4.48372 5.55249,0 16.25247,0.50995 30.00874,-0.76378 4.07501,0.15252 4.38125,3.87253 -0.61132,4.43253 -2.13992,0.40749 -6.67498,0.35621 -7.28617,3.9238 -0.50999,18.44497 3.76999,20.22872 -10.13879,25.27366 -17.72999,4.17755 -36.83624,2.24129 -47.63751,-8.20374 -4.83998,-4.28001 -10.90245,-14.11498 -10.49496,-25.73241 z m -45.80375,12.33116 c 1.98622,-19.97497 18.54498,-24.66247 27.05375,-24.71375 10.08751,0.30625 13.2975,3.61748 13.4,6.98128 0.10125,3.3625 -2.29255,5.14626 -4.89124,4.43375 -5.55375,-1.42754 -4.48376,-7.28753 -11.87126,-7.74628 -8.35503,1.22375 -13.4,10.59875 -11.97377,21.80878 1.4275,11.21002 12.28,19.56756 25.52628,12.73872 3.20999,-0.71251 3.465,1.93627 0.86624,3.77129 -24.35375,14.98001 -39.12877,-6.37001 -38.11,-17.27379 z m -75.20128,-33.52875 c -0.50872,-6.87873 -2.64872,-4.78996 -7.89622,-6.87873 -4.23,-0.81498 -4.58627,-3.87254 -0.40875,-4.02497 7.54123,0.55999 11.31122,0.66245 17.57747,-0.30625 2.85378,0.45868 4.07628,1.63124 5.14626,4.38255 5.2475,11.10864 12.89002,27.76994 18.13878,38.87864 0.91625,1.98631 1.42624,2.39501 2.5975,-0.15366 l 15.48874,-39.59129 c 1.73248,-3.3638 3.61751,-4.17877 9.01748,-3.66875 9.32377,0.15251 11.61625,-0.10246 16.2025,-0.61126 3.97374,0.15251 3.71877,3.20999 -0.20373,4.28001 -6.0125,0.0512 -9.17127,2.0887 -10.08752,6.5725 l 0.86499,45.45249 c 0.96878,6.7762 4.48375,6.97999 10.80128,8.61122 2.85373,1.27373 2.24251,3.26127 -0.20374,3.9238 -13.195,-1.52877 -17.78126,-1.42753 -30.87503,-0.15381 -3.76998,0.35751 -4.025,-2.90374 0.0513,-3.76999 4.83997,-1.06995 6.06247,-1.93626 7.13249,-4.48371 l -0.96752,-43.82126 c -0.15247,-1.73249 -1.22372,-1.73249 -1.885,0.30502 l -18.49498,46.2162 c -1.73253,3.9238 -2.4963,3.9238 -4.38125,0.86624 l -21.8575,-47.33619 c -0.6625,-1.63132 -1.4775,-1.1213 -1.58,-0.10255 l 0.205,41.78254 c 0.61126,4.84124 3.97372,5.14625 10.80123,7.28745 1.935,0.61126 2.0375,2.24136 0.4575,3.26004 -13.34873,-1.12 -15.48875,-1.12 -27.86873,0.45875 -1.93627,0 -2.85378,-2.85378 0.15247,-3.26126 6.57254,-1.88499 8.35629,-1.98624 9.32378,-5.75752 l 2.75122,-48.35625" />
    </g>
  </g>
</svg>
